<svg xmlns="http://www.w3.org/2000/svg" viewBox="0 0 260 190" fill="none">
  <defs>
    <linearGradient id="auroraf" x1="0" y1="0" x2="0" y2="1"><stop offset="0" stop-color="#23b3a6"/><stop offset="1" stop-color="#0a3c46"/></linearGradient>
    <linearGradient id="aurorat" x1="0" y1="0" x2="1" y2="1"><stop offset="0" stop-color="#23b3a6"/><stop offset=".5" stop-color="#23b3a6" stop-opacity=".95"/><stop offset="1" stop-color="#0a3c46"/></linearGradient>
    <linearGradient id="auroras" x1="0" y1="0" x2="1" y2="0"><stop offset="0" stop-color="#0a3c46"/><stop offset="1" stop-color="#07090c"/></linearGradient>
    <linearGradient id="auroram" x1="0" y1="0" x2="0" y2="1"><stop offset="0" stop-color="#f1ede2"/><stop offset="1" stop-color="#8a8272"/></linearGradient>
    <linearGradient id="aurorap" x1="0" y1="0" x2="0" y2="1"><stop offset="0" stop-color="#000" stop-opacity=".35"/><stop offset="1" stop-color="#000" stop-opacity=".55"/></linearGradient>
    <radialGradient id="aurorag" cx=".5" cy=".62" r=".55"><stop offset="0" stop-color="#b6fff5" stop-opacity=".35"/><stop offset="1" stop-color="#b6fff5" stop-opacity="0"/></radialGradient>
    <linearGradient id="m" x1="0" y1="0" x2="0" y2="1"><stop offset="0" stop-color="#f4f6fa"/><stop offset="1" stop-color="#9aa3b3"/></linearGradient>
    <linearGradient id="d" x1="0" y1="0" x2="0" y2="1"><stop offset="0" stop-color="#3a4457"/><stop offset="1" stop-color="#151a24"/></linearGradient>
    <linearGradient id="acc" x1="0" y1="0" x2="1" y2="1"><stop offset="0" stop-color="#b6fff5"/><stop offset="1" stop-color="#23b3a6"/></linearGradient>
    <filter id="aurorash" x="-10%" y="-10%" width="120%" height="140%"><feDropShadow dx="0" dy="10" stdDeviation="7" flood-color="#000" flood-opacity=".6"/></filter>
    <filter id="auroraws" x="-20%" y="-20%" width="140%" height="160%"><feDropShadow dx="0" dy="2" stdDeviation="1.5" flood-color="#000" flood-opacity=".7"/></filter>
  </defs>
  <ellipse cx="128" cy="112" rx="124" ry="78" fill="url(#aurorag)"/>
  <g filter="url(#aurorash)">
    <!-- side -->
    <path d="M200 58 L238 36 V144 L200 170 Z" fill="url(#auroras)"/>
    <path d="M206 70 L232 55 M206 150 L232 134" stroke="#000" stroke-opacity=".35" stroke-width="4"/>
    <rect x="212" y="90" width="16" height="30" rx="3" transform="skewY(-30) translate(0 124)" fill="#000" fill-opacity=".35"/>
    <!-- lid -->
    <path d="M20 58 L200 58 L238 36 L60 36 Z" fill="url(#aurorat)"/>
    <path d="M20 58 L200 58 L238 36" stroke="#fff" stroke-opacity=".35" stroke-width="1.3"/>
    <path d="M58 52 L210 52 M72 44 L226 44" stroke="#000" stroke-opacity=".18" stroke-width="3"/>
    <!-- front -->
    <rect x="20" y="58" width="180" height="112" rx="3" fill="url(#auroraf)"/>
    <rect x="20" y="58" width="180" height="10" fill="#000" fill-opacity=".3"/>
    <clipPath id="aurorahz"><rect x="22" y="150" width="176" height="18"/></clipPath>
       <g clip-path="url(#aurorahz)"><path d="M14 168 l12 -18 h7 l-12 18 z" fill="#b6fff5" fill-opacity=".85"/><path d="M28 168 l12 -18 h7 l-12 18 z" fill="#b6fff5" fill-opacity=".85"/><path d="M42 168 l12 -18 h7 l-12 18 z" fill="#b6fff5" fill-opacity=".85"/><path d="M56 168 l12 -18 h7 l-12 18 z" fill="#b6fff5" fill-opacity=".85"/><path d="M70 168 l12 -18 h7 l-12 18 z" fill="#b6fff5" fill-opacity=".85"/><path d="M84 168 l12 -18 h7 l-12 18 z" fill="#b6fff5" fill-opacity=".85"/><path d="M98 168 l12 -18 h7 l-12 18 z" fill="#b6fff5" fill-opacity=".85"/><path d="M112 168 l12 -18 h7 l-12 18 z" fill="#b6fff5" fill-opacity=".85"/><path d="M126 168 l12 -18 h7 l-12 18 z" fill="#b6fff5" fill-opacity=".85"/><path d="M140 168 l12 -18 h7 l-12 18 z" fill="#b6fff5" fill-opacity=".85"/><path d="M154 168 l12 -18 h7 l-12 18 z" fill="#b6fff5" fill-opacity=".85"/><path d="M168 168 l12 -18 h7 l-12 18 z" fill="#b6fff5" fill-opacity=".85"/><path d="M182 168 l12 -18 h7 l-12 18 z" fill="#b6fff5" fill-opacity=".85"/><path d="M196 168 l12 -18 h7 l-12 18 z" fill="#b6fff5" fill-opacity=".85"/><path d="M210 168 l12 -18 h7 l-12 18 z" fill="#b6fff5" fill-opacity=".85"/><path d="M224 168 l12 -18 h7 l-12 18 z" fill="#b6fff5" fill-opacity=".85"/></g>
       <rect x="22" y="150" width="176" height="18" fill="none" stroke="#000" stroke-opacity=".35"/>
    <rect x="20" y="58" width="12" height="112" fill="#000" fill-opacity=".25"/>
    <rect x="188" y="58" width="12" height="112" fill="#000" fill-opacity=".3"/>
    <!-- panel with weapon -->
    <rect x="42" y="76" width="136" height="68" rx="4" fill="url(#aurorap)" stroke="#b6fff5" stroke-opacity=".45" stroke-width="1.2"/>
    <path d="M46 80 h18 M46 80 v10 M174 140 h-18 M174 140 v-10" stroke="#b6fff5" stroke-opacity=".8" stroke-width="1.6"/>
    <g transform="translate(47 74) scale(.63)" filter="url(#auroraws)">
    <path d="M28 104 L132 30 Q150 20 160 24 Q156 36 140 46 L52 112 Z" fill="url(#m)"/>
    <path d="M36 102 L136 34" stroke="#fff" stroke-opacity=".55" stroke-width="2"/>
    <path d="M44 110 L30 122 Q22 126 18 118 L30 104 Z" fill="url(#d)"/>
    <rect x="40" y="98" width="20" height="8" rx="2" transform="rotate(-35 50 102)" fill="url(#acc)"/></g>
    <path d="M65.7 97.7 l10.4 2.7" stroke="#fff" stroke-opacity="0.12" stroke-width="1.2"/><path d="M72.4 157.8 l3.7 -2.5" stroke="#fff" stroke-opacity="0.10" stroke-width="1.1"/><path d="M58.5 144.1 l9.9 -5.0" stroke="#fff" stroke-opacity="0.07" stroke-width="1.3"/><path d="M137.8 76.2 l6.2 -2.1" stroke="#fff" stroke-opacity="0.13" stroke-width="0.8"/><path d="M90.5 89.0 l11.8 -3.7" stroke="#fff" stroke-opacity="0.10" stroke-width="1.6"/><path d="M96.8 88.7 l10.3 6.9" stroke="#fff" stroke-opacity="0.07" stroke-width="0.8"/><path d="M81.7 153.3 l14.8 5.6" stroke="#fff" stroke-opacity="0.08" stroke-width="1.0"/><path d="M178.6 76.3 l5.5 -3.1" stroke="#fff" stroke-opacity="0.12" stroke-width="1.2"/><path d="M147.6 108.8 l15.1 -4.2" stroke="#fff" stroke-opacity="0.12" stroke-width="0.8"/><path d="M99.0 123.3 l16.2 -2.8" stroke="#fff" stroke-opacity="0.09" stroke-width="0.8"/><path d="M50.3 149.2 l4.1 -1.2" stroke="#fff" stroke-opacity="0.07" stroke-width="0.9"/><path d="M92.7 73.1 l14.4 8.7" stroke="#fff" stroke-opacity="0.15" stroke-width="1.5"/><path d="M81.7 119.0 l10.4 3.8" stroke="#fff" stroke-opacity="0.16" stroke-width="1.5"/><path d="M162.0 150.7 l6.6 2.5" stroke="#fff" stroke-opacity="0.13" stroke-width="1.2"/><path d="M155.8 114.9 l14.5 4.5" stroke="#fff" stroke-opacity="0.12" stroke-width="1.3"/><path d="M191.6 144.1 l15.6 -5.9" stroke="#fff" stroke-opacity="0.06" stroke-width="0.7"/><path d="M93.4 118.8 l14.1 6.7" stroke="#fff" stroke-opacity="0.17" stroke-width="0.8"/><path d="M59.0 95.3 l8.5 -4.7" stroke="#fff" stroke-opacity="0.16" stroke-width="1.0"/><path d="M85.6 85.0 l4.7 0.3" stroke="#fff" stroke-opacity="0.14" stroke-width="1.1"/><path d="M150.7 112.3 l14.4 6.2" stroke="#fff" stroke-opacity="0.13" stroke-width="0.9"/><path d="M139.0 155.5 l8.2 2.7" stroke="#fff" stroke-opacity="0.06" stroke-width="1.3"/><path d="M194.4 94.2 l11.1 -3.5" stroke="#fff" stroke-opacity="0.14" stroke-width="1.5"/><path d="M71.8 160.4 l11.5 1.2" stroke="#fff" stroke-opacity="0.11" stroke-width="1.1"/><path d="M100.7 100.5 l16.8 1.3" stroke="#fff" stroke-opacity="0.16" stroke-width="1.2"/><path d="M109.1 136.8 l12.5 3.1" stroke="#fff" stroke-opacity="0.07" stroke-width="1.6"/><path d="M136.0 82.9 l4.3 2.9" stroke="#fff" stroke-opacity="0.14" stroke-width="0.8"/>
    <circle cx="28" cy="70" r="2.2" fill="url(#auroram)"/><circle cx="27.4" cy="69.4" r="0.8" fill="#fff" fill-opacity=".7"/><circle cx="192" cy="70" r="2.2" fill="url(#auroram)"/><circle cx="191.4" cy="69.4" r="0.8" fill="#fff" fill-opacity=".7"/><circle cx="28" cy="160" r="2.2" fill="url(#auroram)"/><circle cx="27.4" cy="159.4" r="0.8" fill="#fff" fill-opacity=".7"/><circle cx="192" cy="160" r="2.2" fill="url(#auroram)"/><circle cx="191.4" cy="159.4" r="0.8" fill="#fff" fill-opacity=".7"/><circle cx="110" cy="70" r="2.2" fill="url(#auroram)"/><circle cx="109.4" cy="69.4" r="0.8" fill="#fff" fill-opacity=".7"/><circle cx="110" cy="160" r="2.2" fill="url(#auroram)"/><circle cx="109.4" cy="159.4" r="0.8" fill="#fff" fill-opacity=".7"/>
    <!-- latches -->
    <rect x="44" y="50" width="20" height="26" rx="2.5" fill="url(#auroram)"/><rect x="49" y="66" width="10" height="6" rx="1" fill="#2e281c"/>
    <rect x="156" y="50" width="20" height="26" rx="2.5" fill="url(#auroram)"/><rect x="161" y="66" width="10" height="6" rx="1" fill="#2e281c"/>
    <!-- padlock -->
    <rect x="102" y="60" width="16" height="13" rx="2" fill="url(#auroram)"/><path d="M105 60 v-4 a5 5 0 0 1 10 0 v4" stroke="url(#auroram)" stroke-width="2.4" fill="none"/>
    <text x="110" y="184" opacity="0" text-anchor="middle" font-family="Arial Black, Arial, sans-serif" font-weight="900" font-size="9" letter-spacing="3" fill="#000" fill-opacity=".45">GRADERUP</text>
    <rect x="20" y="58" width="180" height="112" rx="3" stroke="#fff" stroke-opacity=".12"/>
  </g>
</svg>
