<svg xmlns="http://www.w3.org/2000/svg" viewBox="-170 -150 340 300" fill="none">
  <defs>
    <linearGradient id="ff" x1="0" y1="0" x2="0" y2="1"><stop offset="0" stop-color="#3c4046"/><stop offset=".5" stop-color="#2b2f36"/><stop offset="1" stop-color="#181b20"/></linearGradient>
    <linearGradient id="ft" x1="0" y1="0" x2="1" y2="1"><stop offset="0" stop-color="#898a8e"/><stop offset=".6" stop-color="#6b6d72"/><stop offset="1" stop-color="#2b2f36"/></linearGradient>
    <linearGradient id="fs" x1="0" y1="0" x2="0" y2="1"><stop offset="0" stop-color="#23272d"/><stop offset="1" stop-color="#0c0e11"/></linearGradient>
    <linearGradient id="fb" x1="0" y1="0" x2="1" y2="0"><stop offset="0" stop-color="#07080a"/><stop offset=".5" stop-color="#202123"/><stop offset="1" stop-color="#07080a"/></linearGradient>
    <linearGradient id="fgl" x1="0" y1="0" x2="1" y2="1"><stop offset="0" stop-color="#fff" stop-opacity=".28"/><stop offset=".4" stop-color="#fff" stop-opacity="0"/></linearGradient>
    <linearGradient id="fmt" x1="0" y1="0" x2="0" y2="1"><stop offset="0" stop-color="#f2f4f7"/><stop offset=".5" stop-color="#aab0b9"/><stop offset="1" stop-color="#6b707a"/></linearGradient>
    <linearGradient id="fmd" x1="0" y1="0" x2="0" y2="1"><stop offset="0" stop-color="#9097a2"/><stop offset="1" stop-color="#4a4f58"/></linearGradient>
    <linearGradient id="m" x1="0" y1="0" x2="0" y2="1"><stop offset="0" stop-color="#f4f6fa"/><stop offset="1" stop-color="#9aa3b3"/></linearGradient>
    <linearGradient id="d" x1="0" y1="0" x2="0" y2="1"><stop offset="0" stop-color="#3a4457"/><stop offset="1" stop-color="#151a24"/></linearGradient>
    <linearGradient id="acc" x1="0" y1="0" x2="1" y2="1"><stop offset="0" stop-color="#e4ae39"/><stop offset="1" stop-color="#886f38"/></linearGradient>
    <filter id="fr" x="-10%" y="-10%" width="120%" height="120%"><feFlood flood-color="#ff2d55"/><feComposite in2="SourceAlpha" operator="in"/></filter>
    <filter id="fc" x="-10%" y="-10%" width="120%" height="120%"><feFlood flood-color="#19e3ff"/><feComposite in2="SourceAlpha" operator="in"/></filter>
    <clipPath id="fst"><rect x="58" y="60" width="124" height="58" rx="6"/></clipPath>
    <clipPath id="fs1"><rect x="0" y="70" width="240" height="6"/></clipPath>
    <clipPath id="fs2"><rect x="0" y="96" width="240" height="5"/></clipPath>
    <clipPath id="fct"><rect width="240" height="110"/></clipPath><filter id="fsh" x="-30%" y="-80%" width="160%" height="260%"><feGaussianBlur stdDeviation="7"/></filter></defs>
  <ellipse cx="0.0" cy="79.8" rx="134.4" ry="16" fill="#000" fill-opacity=".55" filter="url(#fsh)"/>
  <g transform="matrix(0.46947 -0.30199 0.00000 0.93969 80.13278 -29.90101)">
  <rect width="110" height="140" fill="url(#fs)"/>
  <rect y="45" width="110" height="6" fill="#000" fill-opacity=".45"/><path d="M0 51.6 H110" stroke="#fff" stroke-opacity=".14"/>
  <rect width="14" height="140" fill="url(#fb)"/><path d="M3 9 h10" stroke="#000" stroke-opacity=".3" stroke-width="2"/><path d="M3 10.6 h10" stroke="#fff" stroke-opacity=".07"/><path d="M3 17 h10" stroke="#000" stroke-opacity=".3" stroke-width="2"/><path d="M3 18.6 h10" stroke="#fff" stroke-opacity=".07"/><path d="M3 25 h10" stroke="#000" stroke-opacity=".3" stroke-width="2"/><path d="M3 26.6 h10" stroke="#fff" stroke-opacity=".07"/><path d="M3 33 h10" stroke="#000" stroke-opacity=".3" stroke-width="2"/><path d="M3 34.6 h10" stroke="#fff" stroke-opacity=".07"/><path d="M3 41 h10" stroke="#000" stroke-opacity=".3" stroke-width="2"/><path d="M3 42.6 h10" stroke="#fff" stroke-opacity=".07"/><path d="M3 49 h10" stroke="#000" stroke-opacity=".3" stroke-width="2"/><path d="M3 50.6 h10" stroke="#fff" stroke-opacity=".07"/><path d="M3 57 h10" stroke="#000" stroke-opacity=".3" stroke-width="2"/><path d="M3 58.6 h10" stroke="#fff" stroke-opacity=".07"/><path d="M3 65 h10" stroke="#000" stroke-opacity=".3" stroke-width="2"/><path d="M3 66.6 h10" stroke="#fff" stroke-opacity=".07"/><path d="M3 73 h10" stroke="#000" stroke-opacity=".3" stroke-width="2"/><path d="M3 74.6 h10" stroke="#fff" stroke-opacity=".07"/><path d="M3 81 h10" stroke="#000" stroke-opacity=".3" stroke-width="2"/><path d="M3 82.6 h10" stroke="#fff" stroke-opacity=".07"/><path d="M3 89 h10" stroke="#000" stroke-opacity=".3" stroke-width="2"/><path d="M3 90.6 h10" stroke="#fff" stroke-opacity=".07"/><path d="M3 97 h10" stroke="#000" stroke-opacity=".3" stroke-width="2"/><path d="M3 98.6 h10" stroke="#fff" stroke-opacity=".07"/><path d="M3 105 h10" stroke="#000" stroke-opacity=".3" stroke-width="2"/><path d="M3 106.6 h10" stroke="#fff" stroke-opacity=".07"/><path d="M3 113 h10" stroke="#000" stroke-opacity=".3" stroke-width="2"/><path d="M3 114.6 h10" stroke="#fff" stroke-opacity=".07"/><path d="M3 121 h10" stroke="#000" stroke-opacity=".3" stroke-width="2"/><path d="M3 122.6 h10" stroke="#fff" stroke-opacity=".07"/><path d="M3 129 h10" stroke="#000" stroke-opacity=".3" stroke-width="2"/><path d="M3 130.6 h10" stroke="#fff" stroke-opacity=".07"/>
  <rect x="96" width="14" height="140" fill="url(#fb)"/><path d="M99 9 h10" stroke="#000" stroke-opacity=".3" stroke-width="2"/><path d="M99 10.6 h10" stroke="#fff" stroke-opacity=".07"/><path d="M99 17 h10" stroke="#000" stroke-opacity=".3" stroke-width="2"/><path d="M99 18.6 h10" stroke="#fff" stroke-opacity=".07"/><path d="M99 25 h10" stroke="#000" stroke-opacity=".3" stroke-width="2"/><path d="M99 26.6 h10" stroke="#fff" stroke-opacity=".07"/><path d="M99 33 h10" stroke="#000" stroke-opacity=".3" stroke-width="2"/><path d="M99 34.6 h10" stroke="#fff" stroke-opacity=".07"/><path d="M99 41 h10" stroke="#000" stroke-opacity=".3" stroke-width="2"/><path d="M99 42.6 h10" stroke="#fff" stroke-opacity=".07"/><path d="M99 49 h10" stroke="#000" stroke-opacity=".3" stroke-width="2"/><path d="M99 50.6 h10" stroke="#fff" stroke-opacity=".07"/><path d="M99 57 h10" stroke="#000" stroke-opacity=".3" stroke-width="2"/><path d="M99 58.6 h10" stroke="#fff" stroke-opacity=".07"/><path d="M99 65 h10" stroke="#000" stroke-opacity=".3" stroke-width="2"/><path d="M99 66.6 h10" stroke="#fff" stroke-opacity=".07"/><path d="M99 73 h10" stroke="#000" stroke-opacity=".3" stroke-width="2"/><path d="M99 74.6 h10" stroke="#fff" stroke-opacity=".07"/><path d="M99 81 h10" stroke="#000" stroke-opacity=".3" stroke-width="2"/><path d="M99 82.6 h10" stroke="#fff" stroke-opacity=".07"/><path d="M99 89 h10" stroke="#000" stroke-opacity=".3" stroke-width="2"/><path d="M99 90.6 h10" stroke="#fff" stroke-opacity=".07"/><path d="M99 97 h10" stroke="#000" stroke-opacity=".3" stroke-width="2"/><path d="M99 98.6 h10" stroke="#fff" stroke-opacity=".07"/><path d="M99 105 h10" stroke="#000" stroke-opacity=".3" stroke-width="2"/><path d="M99 106.6 h10" stroke="#fff" stroke-opacity=".07"/><path d="M99 113 h10" stroke="#000" stroke-opacity=".3" stroke-width="2"/><path d="M99 114.6 h10" stroke="#fff" stroke-opacity=".07"/><path d="M99 121 h10" stroke="#000" stroke-opacity=".3" stroke-width="2"/><path d="M99 122.6 h10" stroke="#fff" stroke-opacity=".07"/><path d="M99 129 h10" stroke="#000" stroke-opacity=".3" stroke-width="2"/><path d="M99 130.6 h10" stroke="#fff" stroke-opacity=".07"/>
  <rect x="30" y="72" width="10" height="16" rx="2" fill="#15171b"/><rect x="70" y="72" width="10" height="16" rx="2" fill="#15171b"/>
  <rect x="28" y="84" width="54" height="11" rx="5.5" fill="#000" fill-opacity=".35"/>
  <rect x="28" y="80" width="54" height="11" rx="5.5" fill="#17191d"/><path d="M33 83 h44" stroke="#fff" stroke-opacity=".2"/>
  <path d="M55 14 L66 33 H44 Z" fill="#f3c228" stroke="#111" stroke-width="1.4" stroke-linejoin="round"/>
  <path d="M55 20 v7" stroke="#111" stroke-width="2.2" stroke-linecap="round"/><circle cx="55" cy="30" r="1.2" fill="#111"/>
  <path d="M52.6 27.8 l9.3 -2.0" stroke="#fff" stroke-opacity="0.09" stroke-width="1.3"/><path d="M75.0 121.1 l14.7 0.3" stroke="#fff" stroke-opacity="0.07" stroke-width="1.1"/><path d="M57.7 97.0 l9.3 -2.5" stroke="#fff" stroke-opacity="0.10" stroke-width="1.2"/><path d="M102.2 35.1 l12.6 -6.8" stroke="#fff" stroke-opacity="0.12" stroke-width="0.6"/><path d="M16.4 115.1 l5.5 3.9" stroke="#fff" stroke-opacity="0.16" stroke-width="0.8"/><path d="M65.9 22.7 l7.7 -4.1" stroke="#fff" stroke-opacity="0.13" stroke-width="1.1"/><path d="M69.8 17.0 l4.2 0.4" stroke="#fff" stroke-opacity="0.06" stroke-width="0.6"/><path d="M89.5 69.2 l6.7 -1.3" stroke="#fff" stroke-opacity="0.06" stroke-width="1.2"/><path d="M21.8 100.2 l14.4 -3.9" stroke="#fff" stroke-opacity="0.09" stroke-width="1.3"/><path d="M80.1 104.3 l7.0 -1.2" stroke="#fff" stroke-opacity="0.09" stroke-width="0.7"/><path d="M49.1 22.8 l8.9 7.4" stroke="#fff" stroke-opacity="0.12" stroke-width="0.9"/><path d="M13.3 89.1 l2.7 -2.0" stroke="#fff" stroke-opacity="0.13" stroke-width="0.7"/><path d="M58.4 38.7 l14.4 3.1" stroke="#fff" stroke-opacity="0.06" stroke-width="0.8"/><path d="M40.8 114.5 l6.1 0.8" stroke="#fff" stroke-opacity="0.17" stroke-width="0.6"/>
  <rect x=".5" y=".5" width="109" height="139" stroke="#fff" stroke-opacity=".12"/><rect width="110" height="140" fill="#000" fill-opacity=".32"/></g>
  <g transform="matrix(0.88295 0.16057 -0.46947 0.30199 -80.13278 -101.65595)">
  <rect width="240" height="110" fill="url(#ft)"/>
  <rect x="6" y="6" width="228" height="98" rx="6" stroke="#000" stroke-opacity=".16" stroke-width="2"/>
  <rect x="7.5" y="7.5" width="225" height="95" rx="5" stroke="#fff" stroke-opacity=".18"/>
  <g clip-path="url(#fct)"><g transform="rotate(-32 50 60)"><rect x="-40" y="52" width="200" height="14" fill="#f3c228"/><path d="M-40 66 l7 -14 h5 l-7 14 z" fill="#111"/><path d="M-29 66 l7 -14 h5 l-7 14 z" fill="#111"/><path d="M-18 66 l7 -14 h5 l-7 14 z" fill="#111"/><path d="M-7 66 l7 -14 h5 l-7 14 z" fill="#111"/><path d="M4 66 l7 -14 h5 l-7 14 z" fill="#111"/><path d="M15 66 l7 -14 h5 l-7 14 z" fill="#111"/><path d="M26 66 l7 -14 h5 l-7 14 z" fill="#111"/><path d="M37 66 l7 -14 h5 l-7 14 z" fill="#111"/><path d="M48 66 l7 -14 h5 l-7 14 z" fill="#111"/><path d="M59 66 l7 -14 h5 l-7 14 z" fill="#111"/><path d="M70 66 l7 -14 h5 l-7 14 z" fill="#111"/><path d="M81 66 l7 -14 h5 l-7 14 z" fill="#111"/><path d="M92 66 l7 -14 h5 l-7 14 z" fill="#111"/><path d="M103 66 l7 -14 h5 l-7 14 z" fill="#111"/><path d="M114 66 l7 -14 h5 l-7 14 z" fill="#111"/><path d="M125 66 l7 -14 h5 l-7 14 z" fill="#111"/><path d="M136 66 l7 -14 h5 l-7 14 z" fill="#111"/><path d="M147 66 l7 -14 h5 l-7 14 z" fill="#111"/><path d="M158 66 l7 -14 h5 l-7 14 z" fill="#111"/><path d="M169 66 l7 -14 h5 l-7 14 z" fill="#111"/></g></g>
  <rect x="84" y="46" width="12" height="18" rx="2.5" fill="#1a1c21"/><rect x="144" y="46" width="12" height="18" rx="2.5" fill="#1a1c21"/>
  <rect x="80" y="52" width="80" height="14" rx="7" fill="#000" fill-opacity=".35"/>
  <rect x="80" y="48" width="80" height="14" rx="7" fill="#17191d"/><path d="M86 51.5 h68" stroke="#fff" stroke-opacity=".22" stroke-width="1.4"/>
  <circle cx="14" cy="14" r="2.6" fill="url(#fmt)"/><circle cx="226" cy="14" r="2.6" fill="url(#fmt)"/><circle cx="14" cy="96" r="2.6" fill="url(#fmt)"/><circle cx="226" cy="96" r="2.6" fill="url(#fmt)"/>
  <text x="120" y="88" text-anchor="middle" font-family="Arial Black, Arial, sans-serif" font-weight="900" font-size="9" letter-spacing="4" fill="#000" fill-opacity=".22">GRADERUP</text>
  <text x="22" y="26" font-family="Arial, sans-serif" font-weight="700" font-size="6" fill="#000" fill-opacity=".35">BLA-572</text>
  <path d="M164.3 23.8 l8.3 -6.0" stroke="#fff" stroke-opacity="0.12" stroke-width="1.2"/><path d="M23.3 96.4 l5.2 -2.2" stroke="#fff" stroke-opacity="0.11" stroke-width="0.7"/><path d="M100.4 8.4 l3.2 1.8" stroke="#fff" stroke-opacity="0.06" stroke-width="0.7"/><path d="M31.9 58.9 l12.1 -8.4" stroke="#fff" stroke-opacity="0.13" stroke-width="1.1"/><path d="M85.9 89.2 l4.1 -0.9" stroke="#fff" stroke-opacity="0.16" stroke-width="1.1"/><path d="M7.9 17.4 l12.8 0.9" stroke="#fff" stroke-opacity="0.12" stroke-width="1.2"/><path d="M176.2 10.9 l12.6 4.5" stroke="#fff" stroke-opacity="0.09" stroke-width="0.9"/><path d="M108.6 63.4 l6.6 0.4" stroke="#fff" stroke-opacity="0.10" stroke-width="1.2"/><path d="M201.8 28.7 l3.0 1.6" stroke="#fff" stroke-opacity="0.08" stroke-width="0.6"/><path d="M122.7 40.2 l14.3 -2.5" stroke="#fff" stroke-opacity="0.07" stroke-width="1.0"/><path d="M167.7 90.0 l4.3 -1.7" stroke="#fff" stroke-opacity="0.06" stroke-width="0.6"/><path d="M32.6 45.5 l11.6 2.0" stroke="#fff" stroke-opacity="0.09" stroke-width="1.3"/><path d="M164.3 25.0 l6.3 3.3" stroke="#fff" stroke-opacity="0.08" stroke-width="0.9"/><path d="M35.1 19.7 l11.2 -5.7" stroke="#fff" stroke-opacity="0.16" stroke-width="1.0"/><path d="M97.5 90.3 l8.5 -2.6" stroke="#fff" stroke-opacity="0.11" stroke-width="1.0"/><path d="M230.2 25.2 l11.1 1.1" stroke="#fff" stroke-opacity="0.17" stroke-width="0.8"/><path d="M109.3 87.2 l5.0 -3.4" stroke="#fff" stroke-opacity="0.09" stroke-width="1.1"/><path d="M66.5 84.1 l14.5 1.3" stroke="#fff" stroke-opacity="0.09" stroke-width="1.3"/>
  <rect width="240" height="110" fill="url(#fgl)"/>
  <rect x=".5" y=".5" width="239" height="109" stroke="#fff" stroke-opacity=".3"/><rect width="240" height="110" fill="#fff" fill-opacity=".06"/></g>
  <g transform="matrix(0.88295 0.16057 0.00000 0.93969 -131.77465 -68.43751)">
  <rect width="240" height="140" fill="url(#ff)"/>
  <rect width="240" height="46" fill="#fff" fill-opacity=".06"/>
  <path d="M20 16 H220 M20 38 H220" stroke="#000" stroke-opacity=".12" stroke-width="2"/><path d="M20 17.5 H220 M20 39.5 H220" stroke="#fff" stroke-opacity=".07"/>
  <rect y="45" width="240" height="6" fill="#000" fill-opacity=".45"/><path d="M0 51.6 H240" stroke="#fff" stroke-opacity=".18"/>
  <path d="M20 126 H220" stroke="#000" stroke-opacity=".28" stroke-width="2"/><path d="M20 127.6 H220" stroke="#fff" stroke-opacity=".08"/>
  <rect width="16" height="140" fill="url(#fb)"/><path d="M4 9 h10" stroke="#000" stroke-opacity=".3" stroke-width="2"/><path d="M4 10.6 h10" stroke="#fff" stroke-opacity=".07"/><path d="M4 17 h10" stroke="#000" stroke-opacity=".3" stroke-width="2"/><path d="M4 18.6 h10" stroke="#fff" stroke-opacity=".07"/><path d="M4 25 h10" stroke="#000" stroke-opacity=".3" stroke-width="2"/><path d="M4 26.6 h10" stroke="#fff" stroke-opacity=".07"/><path d="M4 33 h10" stroke="#000" stroke-opacity=".3" stroke-width="2"/><path d="M4 34.6 h10" stroke="#fff" stroke-opacity=".07"/><path d="M4 41 h10" stroke="#000" stroke-opacity=".3" stroke-width="2"/><path d="M4 42.6 h10" stroke="#fff" stroke-opacity=".07"/><path d="M4 49 h10" stroke="#000" stroke-opacity=".3" stroke-width="2"/><path d="M4 50.6 h10" stroke="#fff" stroke-opacity=".07"/><path d="M4 57 h10" stroke="#000" stroke-opacity=".3" stroke-width="2"/><path d="M4 58.6 h10" stroke="#fff" stroke-opacity=".07"/><path d="M4 65 h10" stroke="#000" stroke-opacity=".3" stroke-width="2"/><path d="M4 66.6 h10" stroke="#fff" stroke-opacity=".07"/><path d="M4 73 h10" stroke="#000" stroke-opacity=".3" stroke-width="2"/><path d="M4 74.6 h10" stroke="#fff" stroke-opacity=".07"/><path d="M4 81 h10" stroke="#000" stroke-opacity=".3" stroke-width="2"/><path d="M4 82.6 h10" stroke="#fff" stroke-opacity=".07"/><path d="M4 89 h10" stroke="#000" stroke-opacity=".3" stroke-width="2"/><path d="M4 90.6 h10" stroke="#fff" stroke-opacity=".07"/><path d="M4 97 h10" stroke="#000" stroke-opacity=".3" stroke-width="2"/><path d="M4 98.6 h10" stroke="#fff" stroke-opacity=".07"/><path d="M4 105 h10" stroke="#000" stroke-opacity=".3" stroke-width="2"/><path d="M4 106.6 h10" stroke="#fff" stroke-opacity=".07"/><path d="M4 113 h10" stroke="#000" stroke-opacity=".3" stroke-width="2"/><path d="M4 114.6 h10" stroke="#fff" stroke-opacity=".07"/><path d="M4 121 h10" stroke="#000" stroke-opacity=".3" stroke-width="2"/><path d="M4 122.6 h10" stroke="#fff" stroke-opacity=".07"/><path d="M4 129 h10" stroke="#000" stroke-opacity=".3" stroke-width="2"/><path d="M4 130.6 h10" stroke="#fff" stroke-opacity=".07"/>
  <rect x="224" width="16" height="140" fill="url(#fb)"/><path d="M227 9 h10" stroke="#000" stroke-opacity=".3" stroke-width="2"/><path d="M227 10.6 h10" stroke="#fff" stroke-opacity=".07"/><path d="M227 17 h10" stroke="#000" stroke-opacity=".3" stroke-width="2"/><path d="M227 18.6 h10" stroke="#fff" stroke-opacity=".07"/><path d="M227 25 h10" stroke="#000" stroke-opacity=".3" stroke-width="2"/><path d="M227 26.6 h10" stroke="#fff" stroke-opacity=".07"/><path d="M227 33 h10" stroke="#000" stroke-opacity=".3" stroke-width="2"/><path d="M227 34.6 h10" stroke="#fff" stroke-opacity=".07"/><path d="M227 41 h10" stroke="#000" stroke-opacity=".3" stroke-width="2"/><path d="M227 42.6 h10" stroke="#fff" stroke-opacity=".07"/><path d="M227 49 h10" stroke="#000" stroke-opacity=".3" stroke-width="2"/><path d="M227 50.6 h10" stroke="#fff" stroke-opacity=".07"/><path d="M227 57 h10" stroke="#000" stroke-opacity=".3" stroke-width="2"/><path d="M227 58.6 h10" stroke="#fff" stroke-opacity=".07"/><path d="M227 65 h10" stroke="#000" stroke-opacity=".3" stroke-width="2"/><path d="M227 66.6 h10" stroke="#fff" stroke-opacity=".07"/><path d="M227 73 h10" stroke="#000" stroke-opacity=".3" stroke-width="2"/><path d="M227 74.6 h10" stroke="#fff" stroke-opacity=".07"/><path d="M227 81 h10" stroke="#000" stroke-opacity=".3" stroke-width="2"/><path d="M227 82.6 h10" stroke="#fff" stroke-opacity=".07"/><path d="M227 89 h10" stroke="#000" stroke-opacity=".3" stroke-width="2"/><path d="M227 90.6 h10" stroke="#fff" stroke-opacity=".07"/><path d="M227 97 h10" stroke="#000" stroke-opacity=".3" stroke-width="2"/><path d="M227 98.6 h10" stroke="#fff" stroke-opacity=".07"/><path d="M227 105 h10" stroke="#000" stroke-opacity=".3" stroke-width="2"/><path d="M227 106.6 h10" stroke="#fff" stroke-opacity=".07"/><path d="M227 113 h10" stroke="#000" stroke-opacity=".3" stroke-width="2"/><path d="M227 114.6 h10" stroke="#fff" stroke-opacity=".07"/><path d="M227 121 h10" stroke="#000" stroke-opacity=".3" stroke-width="2"/><path d="M227 122.6 h10" stroke="#fff" stroke-opacity=".07"/><path d="M227 129 h10" stroke="#000" stroke-opacity=".3" stroke-width="2"/><path d="M227 130.6 h10" stroke="#fff" stroke-opacity=".07"/>
  <g transform="rotate(-2.5 180 22)">
    <rect x="152" y="8" width="60" height="28" rx="1.5" fill="#000" fill-opacity=".25" transform="translate(1 1.5)"/>
    <rect x="152" y="8" width="60" height="28" rx="1.5" fill="#eeece4"/>
    <text x="156" y="15.5" font-family="Arial, sans-serif" font-weight="700" font-size="5.2" fill="#23262c">GRADERUP SUPPLY</text>
    <path d="M156 19 h36" stroke="#23262c" stroke-opacity=".55" stroke-width="1.2"/>
    <rect x="157" y="24" width="1.5" height="8" fill="#23262c"/><rect x="159.1" y="24" width="0.9" height="8" fill="#23262c"/><rect x="161.2" y="24" width="0.9" height="8" fill="#23262c"/><rect x="163.3" y="24" width="1.5" height="8" fill="#23262c"/><rect x="165.4" y="24" width="0.9" height="8" fill="#23262c"/><rect x="167.5" y="24" width="1.5" height="8" fill="#23262c"/><rect x="169.6" y="24" width="0.9" height="8" fill="#23262c"/><rect x="171.7" y="24" width="0.9" height="8" fill="#23262c"/><rect x="173.8" y="24" width="0.9" height="8" fill="#23262c"/><rect x="175.9" y="24" width="1.5" height="8" fill="#23262c"/><rect x="178" y="24" width="0.9" height="8" fill="#23262c"/><rect x="180.1" y="24" width="1.5" height="8" fill="#23262c"/><rect x="182.2" y="24" width="1.5" height="8" fill="#23262c"/><rect x="184.3" y="24" width="1.5" height="8" fill="#23262c"/><rect x="186.4" y="24" width="0.9" height="8" fill="#23262c"/><rect x="188.5" y="24" width="0.9" height="8" fill="#23262c"/>
    <text x="191" y="32" font-family="Arial, sans-serif" font-weight="700" font-size="4.8" fill="#947125">BLA-572</text>
  </g>
  <circle cx="44" cy="24" r="11.5" fill="#000" fill-opacity=".3" transform="translate(1 1.5)"/>
  <circle cx="44" cy="24" r="11.5" fill="#e4ae39"/><circle cx="44" cy="24" r="8.7" fill="#101318"/>
  <path d="M44 18 L45.8 22.2 L50.3 22.5 L46.9 25.3 L48 29.6 L44 27.2 L40 29.6 L41.1 25.3 L37.7 22.5 L42.2 22.2 Z" fill="#e4ae39"/>
  <rect x="59.2" y="62" width="124" height="58" rx="6" fill="#000" fill-opacity=".3"/>
  <rect x="58" y="60" width="124" height="58" rx="6" fill="#0d1015"/>
  <g clip-path="url(#fst)">
    <rect x="58" y="60" width="124" height="58" fill="#e4ae39" fill-opacity=".1"/>
    <path d="M58 64 H182" stroke="#fff" stroke-opacity=".035"/><path d="M58 70 H182" stroke="#fff" stroke-opacity=".035"/><path d="M58 76 H182" stroke="#fff" stroke-opacity=".035"/><path d="M58 82 H182" stroke="#fff" stroke-opacity=".035"/><path d="M58 88 H182" stroke="#fff" stroke-opacity=".035"/><path d="M58 94 H182" stroke="#fff" stroke-opacity=".035"/><path d="M58 100 H182" stroke="#fff" stroke-opacity=".035"/><path d="M58 106 H182" stroke="#fff" stroke-opacity=".035"/><path d="M58 112 H182" stroke="#fff" stroke-opacity=".035"/><path d="M58 118 H182" stroke="#fff" stroke-opacity=".035"/>
    <g transform="translate(-3 0)" opacity=".85"><g transform="translate(58 49) scale(.62) rotate(-12 100 70)" filter="url(#fr)"><rect x="18" y="62" width="64" height="16" rx="6" fill="url(#d)"/><circle cx="16" cy="70" r="9" stroke="url(#m)" stroke-width="5" fill="none"/><rect x="78" y="58" width="8" height="24" rx="2" fill="url(#acc)"/><path d="M86 60 Q140 40 178 64 Q150 58 128 70 Q110 80 86 80 Z" fill="url(#m)"/><path d="M92 76 Q116 70 136 62" stroke="#fff" stroke-opacity=".55" stroke-width="1.6" fill="none"/></g></g>
    <g transform="translate(3 0)" opacity=".85"><g transform="translate(58 49) scale(.62) rotate(-12 100 70)" filter="url(#fc)"><rect x="18" y="62" width="64" height="16" rx="6" fill="url(#d)"/><circle cx="16" cy="70" r="9" stroke="url(#m)" stroke-width="5" fill="none"/><rect x="78" y="58" width="8" height="24" rx="2" fill="url(#acc)"/><path d="M86 60 Q140 40 178 64 Q150 58 128 70 Q110 80 86 80 Z" fill="url(#m)"/><path d="M92 76 Q116 70 136 62" stroke="#fff" stroke-opacity=".55" stroke-width="1.6" fill="none"/></g></g>
    <g transform="translate(58 49) scale(.62) rotate(-12 100 70)"><rect x="18" y="62" width="64" height="16" rx="6" fill="url(#d)"/><circle cx="16" cy="70" r="9" stroke="url(#m)" stroke-width="5" fill="none"/><rect x="78" y="58" width="8" height="24" rx="2" fill="url(#acc)"/><path d="M86 60 Q140 40 178 64 Q150 58 128 70 Q110 80 86 80 Z" fill="url(#m)"/><path d="M92 76 Q116 70 136 62" stroke="#fff" stroke-opacity=".55" stroke-width="1.6" fill="none"/></g>
    <g clip-path="url(#fs1)" transform="translate(7 0)"><g transform="translate(58 49) scale(.62) rotate(-12 100 70)"><rect x="18" y="62" width="64" height="16" rx="6" fill="url(#d)"/><circle cx="16" cy="70" r="9" stroke="url(#m)" stroke-width="5" fill="none"/><rect x="78" y="58" width="8" height="24" rx="2" fill="url(#acc)"/><path d="M86 60 Q140 40 178 64 Q150 58 128 70 Q110 80 86 80 Z" fill="url(#m)"/><path d="M92 76 Q116 70 136 62" stroke="#fff" stroke-opacity=".55" stroke-width="1.6" fill="none"/></g></g>
    <g clip-path="url(#fs2)" transform="translate(-6 0)"><g transform="translate(58 49) scale(.62) rotate(-12 100 70)"><rect x="18" y="62" width="64" height="16" rx="6" fill="url(#d)"/><circle cx="16" cy="70" r="9" stroke="url(#m)" stroke-width="5" fill="none"/><rect x="78" y="58" width="8" height="24" rx="2" fill="url(#acc)"/><path d="M86 60 Q140 40 178 64 Q150 58 128 70 Q110 80 86 80 Z" fill="url(#m)"/><path d="M92 76 Q116 70 136 62" stroke="#fff" stroke-opacity=".55" stroke-width="1.6" fill="none"/></g></g>
  </g>
  <rect x="58" y="60" width="124" height="58" rx="6" stroke="#e4ae39" stroke-opacity=".85" stroke-width="1.6"/>
  <path d="M63 65 h10 M63 65 v7 M177 113 h-10 M177 113 v-7" stroke="#e4ae39" stroke-width="1.6"/>
  
    <rect x="23.5" y="38.5" width="24" height="36" rx="3.5" fill="#000" fill-opacity=".35"/>
    <rect x="22" y="36" width="24" height="36" rx="3.5" fill="url(#fmt)"/>
    <rect x="26" y="45" width="16" height="22" rx="2.5" fill="url(#fmd)"/>
    <path d="M26 50 h16" stroke="#000" stroke-opacity=".35" stroke-width="1.2"/>
    <rect x="29" y="38" width="10" height="5" rx="1.5" fill="#1b1d22"/>
    <path d="M23.5 37.5 h21" stroke="#fff" stroke-opacity=".6"/>
    <rect x="195.5" y="38.5" width="24" height="36" rx="3.5" fill="#000" fill-opacity=".35"/>
    <rect x="194" y="36" width="24" height="36" rx="3.5" fill="url(#fmt)"/>
    <rect x="198" y="45" width="16" height="22" rx="2.5" fill="url(#fmd)"/>
    <path d="M198 50 h16" stroke="#000" stroke-opacity=".35" stroke-width="1.2"/>
    <rect x="201" y="38" width="10" height="5" rx="1.5" fill="#1b1d22"/>
    <path d="M195.5 37.5 h21" stroke="#fff" stroke-opacity=".6"/>
  <rect x="108" y="38" width="24" height="19" rx="3" fill="url(#fmt)"/>
  <circle cx="120" cy="45.5" r="2.6" fill="#1b1d22"/><rect x="119" y="46.5" width="2" height="6" rx="1" fill="#1b1d22"/>
  <text x="120.6" y="136.6" text-anchor="middle" font-family="Arial Black, Arial, sans-serif" font-weight="900" font-size="7.5" letter-spacing="3" fill="#fff" fill-opacity=".14">GRADERUP</text>
  <text x="120" y="136" text-anchor="middle" font-family="Arial Black, Arial, sans-serif" font-weight="900" font-size="7.5" letter-spacing="3" fill="#000" fill-opacity=".42">GRADERUP</text>
  <path d="M35.4 93.9 l6.0 -4.0" stroke="#fff" stroke-opacity="0.05" stroke-width="1.1"/><path d="M207.8 25.6 l7.7 4.2" stroke="#fff" stroke-opacity="0.10" stroke-width="0.7"/><path d="M52.1 27.4 l9.4 6.3" stroke="#fff" stroke-opacity="0.07" stroke-width="1.2"/><path d="M129.1 102.3 l5.5 -3.3" stroke="#fff" stroke-opacity="0.17" stroke-width="1.0"/><path d="M114.5 54.4 l10.0 -7.2" stroke="#fff" stroke-opacity="0.05" stroke-width="0.6"/><path d="M184.0 47.3 l6.1 -4.3" stroke="#fff" stroke-opacity="0.14" stroke-width="1.1"/><path d="M178.3 102.1 l3.1 -1.8" stroke="#fff" stroke-opacity="0.11" stroke-width="0.7"/><path d="M203.5 55.8 l3.5 0.1" stroke="#fff" stroke-opacity="0.13" stroke-width="1.0"/><path d="M207.3 46.1 l4.0 -1.0" stroke="#fff" stroke-opacity="0.08" stroke-width="1.0"/><path d="M148.7 128.7 l5.0 -1.7" stroke="#fff" stroke-opacity="0.11" stroke-width="0.8"/><path d="M31.7 112.0 l6.5 -5.3" stroke="#fff" stroke-opacity="0.05" stroke-width="0.7"/><path d="M167.4 131.9 l3.6 -1.6" stroke="#fff" stroke-opacity="0.11" stroke-width="1.2"/><path d="M182.8 71.8 l8.8 7.0" stroke="#fff" stroke-opacity="0.06" stroke-width="1.1"/><path d="M138.6 52.3 l3.2 -0.8" stroke="#fff" stroke-opacity="0.07" stroke-width="0.5"/><path d="M57.4 118.0 l10.4 -0.8" stroke="#fff" stroke-opacity="0.16" stroke-width="1.2"/><path d="M19.7 116.0 l5.5 2.0" stroke="#fff" stroke-opacity="0.13" stroke-width="1.1"/><path d="M176.4 107.5 l13.0 1.5" stroke="#fff" stroke-opacity="0.07" stroke-width="0.8"/><path d="M43.3 35.5 l8.9 2.4" stroke="#fff" stroke-opacity="0.10" stroke-width="0.5"/><path d="M161.0 20.5 l3.9 1.5" stroke="#fff" stroke-opacity="0.14" stroke-width="1.0"/><path d="M163.4 59.2 l9.3 -4.1" stroke="#fff" stroke-opacity="0.07" stroke-width="0.8"/><path d="M50.8 132.9 l8.9 1.2" stroke="#fff" stroke-opacity="0.12" stroke-width="1.2"/><path d="M193.8 42.8 l5.5 0.5" stroke="#fff" stroke-opacity="0.08" stroke-width="0.7"/><path d="M17.3 44.9 l7.7 -0.3" stroke="#fff" stroke-opacity="0.11" stroke-width="0.6"/><path d="M170.1 49.2 l4.3 -2.0" stroke="#fff" stroke-opacity="0.06" stroke-width="1.0"/><path d="M224.9 117.3 l13.4 -1.4" stroke="#fff" stroke-opacity="0.12" stroke-width="1.0"/><path d="M78.1 15.3 l10.4 -3.3" stroke="#fff" stroke-opacity="0.05" stroke-width="1.0"/><path d="M211.0 17.1 l9.4 6.3" stroke="#fff" stroke-opacity="0.11" stroke-width="0.7"/><path d="M116.2 117.1 l11.7 4.5" stroke="#fff" stroke-opacity="0.08" stroke-width="1.0"/><path d="M60.1 23.7 l6.1 2.4" stroke="#fff" stroke-opacity="0.12" stroke-width="1.0"/><path d="M174.4 85.8 l7.5 -1.0" stroke="#fff" stroke-opacity="0.11" stroke-width="1.3"/>
  <rect width="240" height="140" fill="url(#fgl)"/>
  <rect x=".5" y=".5" width="239" height="139" stroke="#fff" stroke-opacity=".22"/>
  <path d="M0 .8 H240" stroke="#fff" stroke-opacity=".5" stroke-width="1.6"/></g>
</svg>
