<svg xmlns="http://www.w3.org/2000/svg" viewBox="0 0 260 190" fill="none">
  <defs>
    <linearGradient id="desertf" x1="0" y1="0" x2="0" y2="1"><stop offset="0" stop-color="#c9a76a"/><stop offset="1" stop-color="#5b4524"/></linearGradient>
    <linearGradient id="desertt" x1="0" y1="0" x2="1" y2="1"><stop offset="0" stop-color="#c9a76a"/><stop offset=".5" stop-color="#c9a76a" stop-opacity=".95"/><stop offset="1" stop-color="#5b4524"/></linearGradient>
    <linearGradient id="deserts" x1="0" y1="0" x2="1" y2="0"><stop offset="0" stop-color="#5b4524"/><stop offset="1" stop-color="#07090c"/></linearGradient>
    <linearGradient id="desertm" x1="0" y1="0" x2="0" y2="1"><stop offset="0" stop-color="#f1ede2"/><stop offset="1" stop-color="#8a8272"/></linearGradient>
    <linearGradient id="desertp" x1="0" y1="0" x2="0" y2="1"><stop offset="0" stop-color="#000" stop-opacity=".35"/><stop offset="1" stop-color="#000" stop-opacity=".55"/></linearGradient>
    <radialGradient id="desertg" cx=".5" cy=".62" r=".55"><stop offset="0" stop-color="#fff1c9" stop-opacity=".35"/><stop offset="1" stop-color="#fff1c9" stop-opacity="0"/></radialGradient>
    <linearGradient id="m" x1="0" y1="0" x2="0" y2="1"><stop offset="0" stop-color="#f4f6fa"/><stop offset="1" stop-color="#9aa3b3"/></linearGradient>
    <linearGradient id="d" x1="0" y1="0" x2="0" y2="1"><stop offset="0" stop-color="#3a4457"/><stop offset="1" stop-color="#151a24"/></linearGradient>
    <linearGradient id="acc" x1="0" y1="0" x2="1" y2="1"><stop offset="0" stop-color="#fff1c9"/><stop offset="1" stop-color="#c9a76a"/></linearGradient>
    <filter id="desertsh" x="-10%" y="-10%" width="120%" height="140%"><feDropShadow dx="0" dy="10" stdDeviation="7" flood-color="#000" flood-opacity=".6"/></filter>
    <filter id="desertws" x="-20%" y="-20%" width="140%" height="160%"><feDropShadow dx="0" dy="2" stdDeviation="1.5" flood-color="#000" flood-opacity=".7"/></filter>
  </defs>
  <ellipse cx="128" cy="112" rx="124" ry="78" fill="url(#desertg)"/>
  <g filter="url(#desertsh)">
    <!-- side -->
    <path d="M200 58 L238 36 V144 L200 170 Z" fill="url(#deserts)"/>
    <path d="M206 70 L232 55 M206 150 L232 134" stroke="#000" stroke-opacity=".35" stroke-width="4"/>
    <rect x="212" y="90" width="16" height="30" rx="3" transform="skewY(-30) translate(0 124)" fill="#000" fill-opacity=".35"/>
    <!-- lid -->
    <path d="M20 58 L200 58 L238 36 L60 36 Z" fill="url(#desertt)"/>
    <path d="M20 58 L200 58 L238 36" stroke="#fff" stroke-opacity=".35" stroke-width="1.3"/>
    <path d="M58 52 L210 52 M72 44 L226 44" stroke="#000" stroke-opacity=".18" stroke-width="3"/>
    <!-- front -->
    <rect x="20" y="58" width="180" height="112" rx="3" fill="url(#desertf)"/>
    <rect x="20" y="58" width="180" height="10" fill="#000" fill-opacity=".3"/>
    <rect x="22" y="152" width="176" height="14" fill="#000" fill-opacity=".22"/>
    <rect x="20" y="58" width="12" height="112" fill="#000" fill-opacity=".25"/>
    <rect x="188" y="58" width="12" height="112" fill="#000" fill-opacity=".3"/>
    <!-- panel with weapon -->
    <rect x="42" y="76" width="136" height="68" rx="4" fill="url(#desertp)" stroke="#fff1c9" stroke-opacity=".45" stroke-width="1.2"/>
    <path d="M46 80 h18 M46 80 v10 M174 140 h-18 M174 140 v-10" stroke="#fff1c9" stroke-opacity=".8" stroke-width="1.6"/>
    <g transform="translate(47 74) scale(.63)" filter="url(#desertws)">
    <path d="M16 58 H150 L188 54 V62 L150 66 H16 Z" fill="url(#m)"/>
    <path d="M40 66 H120 V76 H40 Z" fill="url(#d)"/>
    <path d="M78 76 L70 108 H84 L94 76 Z" fill="url(#d)"/>
    <path d="M100 76 Q104 96 118 104 L126 96 Q112 90 112 76 Z" fill="url(#m)"/>
    <path d="M16 58 L6 86 H30 L40 66 Z" fill="url(#d)"/>
    <rect x="70" y="46" width="44" height="10" rx="3" fill="url(#acc)"/>
    <path d="M20 61 H146" stroke="#fff" stroke-opacity=".45" stroke-width="2"/></g>
    <path d="M46.1 106.5 l7.0 -3.6" stroke="#fff" stroke-opacity="0.10" stroke-width="1.5"/><path d="M173.7 142.0 l13.9 7.0" stroke="#fff" stroke-opacity="0.08" stroke-width="0.8"/><path d="M48.6 74.6 l7.3 3.9" stroke="#fff" stroke-opacity="0.07" stroke-width="0.7"/><path d="M147.9 101.6 l9.7 2.5" stroke="#fff" stroke-opacity="0.05" stroke-width="1.2"/><path d="M108.2 125.4 l10.1 1.8" stroke="#fff" stroke-opacity="0.13" stroke-width="0.8"/><path d="M105.1 85.7 l6.2 -0.3" stroke="#fff" stroke-opacity="0.11" stroke-width="0.7"/><path d="M84.7 78.5 l11.1 3.6" stroke="#fff" stroke-opacity="0.07" stroke-width="1.3"/><path d="M59.4 119.3 l6.6 3.4" stroke="#fff" stroke-opacity="0.09" stroke-width="1.4"/><path d="M57.0 156.9 l8.0 0.8" stroke="#fff" stroke-opacity="0.15" stroke-width="1.3"/><path d="M185.8 140.8 l5.4 3.1" stroke="#fff" stroke-opacity="0.13" stroke-width="1.4"/><path d="M119.3 123.0 l9.9 -3.0" stroke="#fff" stroke-opacity="0.10" stroke-width="0.9"/><path d="M34.4 146.0 l13.0 8.5" stroke="#fff" stroke-opacity="0.11" stroke-width="1.6"/><path d="M81.7 126.5 l12.6 8.5" stroke="#fff" stroke-opacity="0.09" stroke-width="0.8"/><path d="M57.0 83.0 l9.7 -1.6" stroke="#fff" stroke-opacity="0.06" stroke-width="1.3"/><path d="M193.9 105.5 l4.6 0.3" stroke="#fff" stroke-opacity="0.13" stroke-width="0.7"/><path d="M176.4 98.9 l11.5 -2.1" stroke="#fff" stroke-opacity="0.13" stroke-width="1.3"/><path d="M47.8 75.3 l14.7 -0.6" stroke="#fff" stroke-opacity="0.06" stroke-width="1.6"/><path d="M130.7 155.5 l9.1 3.6" stroke="#fff" stroke-opacity="0.12" stroke-width="0.8"/><path d="M62.3 83.2 l16.5 -6.3" stroke="#fff" stroke-opacity="0.08" stroke-width="0.7"/><path d="M184.2 72.5 l11.6 5.7" stroke="#fff" stroke-opacity="0.09" stroke-width="1.1"/><path d="M177.8 102.4 l17.0 5.4" stroke="#fff" stroke-opacity="0.11" stroke-width="1.5"/><path d="M69.0 75.3 l4.1 0.8" stroke="#fff" stroke-opacity="0.10" stroke-width="0.8"/><path d="M137.8 113.4 l16.9 -3.7" stroke="#fff" stroke-opacity="0.10" stroke-width="1.5"/><path d="M80.5 79.0 l6.4 0.1" stroke="#fff" stroke-opacity="0.10" stroke-width="1.4"/><path d="M37.9 152.2 l11.6 -3.2" stroke="#fff" stroke-opacity="0.14" stroke-width="1.5"/><path d="M173.0 155.6 l5.9 0.8" stroke="#fff" stroke-opacity="0.15" stroke-width="1.1"/>
    <circle cx="28" cy="70" r="2.2" fill="url(#desertm)"/><circle cx="27.4" cy="69.4" r="0.8" fill="#fff" fill-opacity=".7"/><circle cx="192" cy="70" r="2.2" fill="url(#desertm)"/><circle cx="191.4" cy="69.4" r="0.8" fill="#fff" fill-opacity=".7"/><circle cx="28" cy="160" r="2.2" fill="url(#desertm)"/><circle cx="27.4" cy="159.4" r="0.8" fill="#fff" fill-opacity=".7"/><circle cx="192" cy="160" r="2.2" fill="url(#desertm)"/><circle cx="191.4" cy="159.4" r="0.8" fill="#fff" fill-opacity=".7"/><circle cx="110" cy="70" r="2.2" fill="url(#desertm)"/><circle cx="109.4" cy="69.4" r="0.8" fill="#fff" fill-opacity=".7"/><circle cx="110" cy="160" r="2.2" fill="url(#desertm)"/><circle cx="109.4" cy="159.4" r="0.8" fill="#fff" fill-opacity=".7"/>
    <!-- latches -->
    <rect x="44" y="50" width="20" height="26" rx="2.5" fill="url(#desertm)"/><rect x="49" y="66" width="10" height="6" rx="1" fill="#2e281c"/>
    <rect x="156" y="50" width="20" height="26" rx="2.5" fill="url(#desertm)"/><rect x="161" y="66" width="10" height="6" rx="1" fill="#2e281c"/>
    <!-- padlock -->
    <rect x="102" y="60" width="16" height="13" rx="2" fill="url(#desertm)"/><path d="M105 60 v-4 a5 5 0 0 1 10 0 v4" stroke="url(#desertm)" stroke-width="2.4" fill="none"/>
    <text x="110" y="162" opacity="1" text-anchor="middle" font-family="Arial Black, Arial, sans-serif" font-weight="900" font-size="9" letter-spacing="3" fill="#000" fill-opacity=".45">GRADERUP</text>
    <rect x="20" y="58" width="180" height="112" rx="3" stroke="#fff" stroke-opacity=".12"/>
  </g>
</svg>
