<svg xmlns="http://www.w3.org/2000/svg" viewBox="-170 -150 340 300" fill="none">
  <defs>
    <linearGradient id="ff" x1="0" y1="0" x2="0" y2="1"><stop offset="0" stop-color="#cc7f3f"/><stop offset=".5" stop-color="#c8742e"/><stop offset="1" stop-color="#7c441c"/></linearGradient>
    <linearGradient id="ft" x1="0" y1="0" x2="1" y2="1"><stop offset="0" stop-color="#e1b18a"/><stop offset=".6" stop-color="#d99e6d"/><stop offset="1" stop-color="#c8742e"/></linearGradient>
    <linearGradient id="fs" x1="0" y1="0" x2="0" y2="1"><stop offset="0" stop-color="#a96027"/><stop offset="1" stop-color="#4a2410"/></linearGradient>
    <linearGradient id="fb" x1="0" y1="0" x2="1" y2="0"><stop offset="0" stop-color="#2c160a"/><stop offset=".5" stop-color="#412d23"/><stop offset="1" stop-color="#2c160a"/></linearGradient>
    <linearGradient id="fgl" x1="0" y1="0" x2="1" y2="1"><stop offset="0" stop-color="#fff" stop-opacity=".28"/><stop offset=".4" stop-color="#fff" stop-opacity="0"/></linearGradient>
    <linearGradient id="fmt" x1="0" y1="0" x2="0" y2="1"><stop offset="0" stop-color="#f2f4f7"/><stop offset=".5" stop-color="#aab0b9"/><stop offset="1" stop-color="#6b707a"/></linearGradient>
    <linearGradient id="fmd" x1="0" y1="0" x2="0" y2="1"><stop offset="0" stop-color="#9097a2"/><stop offset="1" stop-color="#4a4f58"/></linearGradient>
    <linearGradient id="m" x1="0" y1="0" x2="0" y2="1"><stop offset="0" stop-color="#f4f6fa"/><stop offset="1" stop-color="#9aa3b3"/></linearGradient>
    <linearGradient id="d" x1="0" y1="0" x2="0" y2="1"><stop offset="0" stop-color="#3a4457"/><stop offset="1" stop-color="#151a24"/></linearGradient>
    <linearGradient id="acc" x1="0" y1="0" x2="1" y2="1"><stop offset="0" stop-color="#ffe0a8"/><stop offset="1" stop-color="#e4aa6b"/></linearGradient>
    <filter id="fr" x="-10%" y="-10%" width="120%" height="120%"><feFlood flood-color="#ff2d55"/><feComposite in2="SourceAlpha" operator="in"/></filter>
    <filter id="fc" x="-10%" y="-10%" width="120%" height="120%"><feFlood flood-color="#19e3ff"/><feComposite in2="SourceAlpha" operator="in"/></filter>
    <clipPath id="fst"><rect x="58" y="60" width="124" height="58" rx="6"/></clipPath>
    <clipPath id="fs1"><rect x="0" y="70" width="240" height="6"/></clipPath>
    <clipPath id="fs2"><rect x="0" y="96" width="240" height="5"/></clipPath>
    <clipPath id="fct"><rect width="240" height="110"/></clipPath><filter id="fsh" x="-30%" y="-80%" width="160%" height="260%"><feGaussianBlur stdDeviation="7"/></filter></defs>
  <ellipse cx="0.0" cy="79.8" rx="134.4" ry="16" fill="#000" fill-opacity=".55" filter="url(#fsh)"/>
  <g transform="matrix(0.46947 -0.30199 0.00000 0.93969 80.13278 -29.90101)">
  <rect width="110" height="140" fill="url(#fs)"/>
  <rect y="45" width="110" height="6" fill="#000" fill-opacity=".45"/><path d="M0 51.6 H110" stroke="#fff" stroke-opacity=".14"/>
  <rect width="14" height="140" fill="url(#fb)"/><path d="M3 9 h10" stroke="#000" stroke-opacity=".3" stroke-width="2"/><path d="M3 10.6 h10" stroke="#fff" stroke-opacity=".07"/><path d="M3 17 h10" stroke="#000" stroke-opacity=".3" stroke-width="2"/><path d="M3 18.6 h10" stroke="#fff" stroke-opacity=".07"/><path d="M3 25 h10" stroke="#000" stroke-opacity=".3" stroke-width="2"/><path d="M3 26.6 h10" stroke="#fff" stroke-opacity=".07"/><path d="M3 33 h10" stroke="#000" stroke-opacity=".3" stroke-width="2"/><path d="M3 34.6 h10" stroke="#fff" stroke-opacity=".07"/><path d="M3 41 h10" stroke="#000" stroke-opacity=".3" stroke-width="2"/><path d="M3 42.6 h10" stroke="#fff" stroke-opacity=".07"/><path d="M3 49 h10" stroke="#000" stroke-opacity=".3" stroke-width="2"/><path d="M3 50.6 h10" stroke="#fff" stroke-opacity=".07"/><path d="M3 57 h10" stroke="#000" stroke-opacity=".3" stroke-width="2"/><path d="M3 58.6 h10" stroke="#fff" stroke-opacity=".07"/><path d="M3 65 h10" stroke="#000" stroke-opacity=".3" stroke-width="2"/><path d="M3 66.6 h10" stroke="#fff" stroke-opacity=".07"/><path d="M3 73 h10" stroke="#000" stroke-opacity=".3" stroke-width="2"/><path d="M3 74.6 h10" stroke="#fff" stroke-opacity=".07"/><path d="M3 81 h10" stroke="#000" stroke-opacity=".3" stroke-width="2"/><path d="M3 82.6 h10" stroke="#fff" stroke-opacity=".07"/><path d="M3 89 h10" stroke="#000" stroke-opacity=".3" stroke-width="2"/><path d="M3 90.6 h10" stroke="#fff" stroke-opacity=".07"/><path d="M3 97 h10" stroke="#000" stroke-opacity=".3" stroke-width="2"/><path d="M3 98.6 h10" stroke="#fff" stroke-opacity=".07"/><path d="M3 105 h10" stroke="#000" stroke-opacity=".3" stroke-width="2"/><path d="M3 106.6 h10" stroke="#fff" stroke-opacity=".07"/><path d="M3 113 h10" stroke="#000" stroke-opacity=".3" stroke-width="2"/><path d="M3 114.6 h10" stroke="#fff" stroke-opacity=".07"/><path d="M3 121 h10" stroke="#000" stroke-opacity=".3" stroke-width="2"/><path d="M3 122.6 h10" stroke="#fff" stroke-opacity=".07"/><path d="M3 129 h10" stroke="#000" stroke-opacity=".3" stroke-width="2"/><path d="M3 130.6 h10" stroke="#fff" stroke-opacity=".07"/>
  <rect x="96" width="14" height="140" fill="url(#fb)"/><path d="M99 9 h10" stroke="#000" stroke-opacity=".3" stroke-width="2"/><path d="M99 10.6 h10" stroke="#fff" stroke-opacity=".07"/><path d="M99 17 h10" stroke="#000" stroke-opacity=".3" stroke-width="2"/><path d="M99 18.6 h10" stroke="#fff" stroke-opacity=".07"/><path d="M99 25 h10" stroke="#000" stroke-opacity=".3" stroke-width="2"/><path d="M99 26.6 h10" stroke="#fff" stroke-opacity=".07"/><path d="M99 33 h10" stroke="#000" stroke-opacity=".3" stroke-width="2"/><path d="M99 34.6 h10" stroke="#fff" stroke-opacity=".07"/><path d="M99 41 h10" stroke="#000" stroke-opacity=".3" stroke-width="2"/><path d="M99 42.6 h10" stroke="#fff" stroke-opacity=".07"/><path d="M99 49 h10" stroke="#000" stroke-opacity=".3" stroke-width="2"/><path d="M99 50.6 h10" stroke="#fff" stroke-opacity=".07"/><path d="M99 57 h10" stroke="#000" stroke-opacity=".3" stroke-width="2"/><path d="M99 58.6 h10" stroke="#fff" stroke-opacity=".07"/><path d="M99 65 h10" stroke="#000" stroke-opacity=".3" stroke-width="2"/><path d="M99 66.6 h10" stroke="#fff" stroke-opacity=".07"/><path d="M99 73 h10" stroke="#000" stroke-opacity=".3" stroke-width="2"/><path d="M99 74.6 h10" stroke="#fff" stroke-opacity=".07"/><path d="M99 81 h10" stroke="#000" stroke-opacity=".3" stroke-width="2"/><path d="M99 82.6 h10" stroke="#fff" stroke-opacity=".07"/><path d="M99 89 h10" stroke="#000" stroke-opacity=".3" stroke-width="2"/><path d="M99 90.6 h10" stroke="#fff" stroke-opacity=".07"/><path d="M99 97 h10" stroke="#000" stroke-opacity=".3" stroke-width="2"/><path d="M99 98.6 h10" stroke="#fff" stroke-opacity=".07"/><path d="M99 105 h10" stroke="#000" stroke-opacity=".3" stroke-width="2"/><path d="M99 106.6 h10" stroke="#fff" stroke-opacity=".07"/><path d="M99 113 h10" stroke="#000" stroke-opacity=".3" stroke-width="2"/><path d="M99 114.6 h10" stroke="#fff" stroke-opacity=".07"/><path d="M99 121 h10" stroke="#000" stroke-opacity=".3" stroke-width="2"/><path d="M99 122.6 h10" stroke="#fff" stroke-opacity=".07"/><path d="M99 129 h10" stroke="#000" stroke-opacity=".3" stroke-width="2"/><path d="M99 130.6 h10" stroke="#fff" stroke-opacity=".07"/>
  <rect x="30" y="72" width="10" height="16" rx="2" fill="#15171b"/><rect x="70" y="72" width="10" height="16" rx="2" fill="#15171b"/>
  <rect x="28" y="84" width="54" height="11" rx="5.5" fill="#000" fill-opacity=".35"/>
  <rect x="28" y="80" width="54" height="11" rx="5.5" fill="#17191d"/><path d="M33 83 h44" stroke="#fff" stroke-opacity=".2"/>
  <path d="M55 14 L66 33 H44 Z" fill="#ffd85a" stroke="#111" stroke-width="1.4" stroke-linejoin="round"/>
  <path d="M55 20 v7" stroke="#111" stroke-width="2.2" stroke-linecap="round"/><circle cx="55" cy="30" r="1.2" fill="#111"/>
  <path d="M70.8 45.6 l3.6 1.7" stroke="#fff" stroke-opacity="0.16" stroke-width="0.9"/><path d="M73.0 102.8 l5.2 -1.0" stroke="#fff" stroke-opacity="0.09" stroke-width="0.9"/><path d="M9.0 117.8 l8.0 4.4" stroke="#fff" stroke-opacity="0.09" stroke-width="1.2"/><path d="M8.1 104.0 l9.2 -4.7" stroke="#fff" stroke-opacity="0.08" stroke-width="0.6"/><path d="M45.3 61.7 l13.0 -5.3" stroke="#fff" stroke-opacity="0.14" stroke-width="1.2"/><path d="M84.3 96.0 l10.4 -7.4" stroke="#fff" stroke-opacity="0.13" stroke-width="1.2"/><path d="M64.9 11.3 l11.2 4.0" stroke="#fff" stroke-opacity="0.11" stroke-width="1.3"/><path d="M26.0 69.8 l6.1 0.7" stroke="#fff" stroke-opacity="0.14" stroke-width="0.7"/><path d="M27.9 13.2 l9.6 -5.1" stroke="#fff" stroke-opacity="0.10" stroke-width="1.0"/><path d="M80.7 57.0 l7.1 -4.8" stroke="#fff" stroke-opacity="0.11" stroke-width="1.1"/><path d="M95.4 68.4 l13.1 -5.8" stroke="#fff" stroke-opacity="0.14" stroke-width="0.8"/><path d="M17.9 76.7 l4.7 -2.8" stroke="#fff" stroke-opacity="0.09" stroke-width="1.0"/><path d="M87.9 95.2 l4.6 -0.4" stroke="#fff" stroke-opacity="0.12" stroke-width="0.8"/><path d="M12.5 8.5 l14.6 -0.9" stroke="#fff" stroke-opacity="0.15" stroke-width="1.1"/>
  <rect x=".5" y=".5" width="109" height="139" stroke="#fff" stroke-opacity=".12"/><rect width="110" height="140" fill="#000" fill-opacity=".32"/></g>
  <g transform="matrix(0.88295 0.16057 -0.46947 0.30199 -80.13278 -101.65595)">
  <rect width="240" height="110" fill="url(#ft)"/>
  <rect x="6" y="6" width="228" height="98" rx="6" stroke="#000" stroke-opacity=".16" stroke-width="2"/>
  <rect x="7.5" y="7.5" width="225" height="95" rx="5" stroke="#fff" stroke-opacity=".18"/>
  
  <rect x="84" y="46" width="12" height="18" rx="2.5" fill="#1a1c21"/><rect x="144" y="46" width="12" height="18" rx="2.5" fill="#1a1c21"/>
  <rect x="80" y="52" width="80" height="14" rx="7" fill="#000" fill-opacity=".35"/>
  <rect x="80" y="48" width="80" height="14" rx="7" fill="#17191d"/><path d="M86 51.5 h68" stroke="#fff" stroke-opacity=".22" stroke-width="1.4"/>
  <circle cx="14" cy="14" r="2.6" fill="url(#fmt)"/><circle cx="226" cy="14" r="2.6" fill="url(#fmt)"/><circle cx="14" cy="96" r="2.6" fill="url(#fmt)"/><circle cx="226" cy="96" r="2.6" fill="url(#fmt)"/>
  <text x="120" y="88" text-anchor="middle" font-family="Arial Black, Arial, sans-serif" font-weight="900" font-size="9" letter-spacing="4" fill="#000" fill-opacity=".22">GRADERUP</text>
  <text x="22" y="26" font-family="Arial, sans-serif" font-weight="700" font-size="6" fill="#000" fill-opacity=".35">EXP-589</text>
  <path d="M44.0 59.8 l6.1 0.7" stroke="#fff" stroke-opacity="0.05" stroke-width="1.2"/><path d="M139.8 30.8 l3.8 -0.2" stroke="#fff" stroke-opacity="0.17" stroke-width="1.0"/><path d="M186.0 10.9 l8.1 -4.6" stroke="#fff" stroke-opacity="0.11" stroke-width="0.7"/><path d="M39.7 34.5 l5.4 4.4" stroke="#fff" stroke-opacity="0.16" stroke-width="1.0"/><path d="M58.1 49.0 l7.0 5.5" stroke="#fff" stroke-opacity="0.11" stroke-width="0.5"/><path d="M57.9 72.8 l4.7 -1.1" stroke="#fff" stroke-opacity="0.12" stroke-width="0.9"/><path d="M152.8 57.6 l5.0 -0.4" stroke="#fff" stroke-opacity="0.14" stroke-width="0.9"/><path d="M29.1 66.3 l11.6 -3.8" stroke="#fff" stroke-opacity="0.06" stroke-width="1.2"/><path d="M196.8 77.4 l7.2 -1.5" stroke="#fff" stroke-opacity="0.15" stroke-width="1.0"/><path d="M136.6 65.8 l4.9 1.0" stroke="#fff" stroke-opacity="0.14" stroke-width="1.0"/><path d="M200.9 54.3 l8.0 -4.5" stroke="#fff" stroke-opacity="0.15" stroke-width="0.6"/><path d="M119.5 59.4 l11.6 -2.4" stroke="#fff" stroke-opacity="0.16" stroke-width="1.0"/><path d="M35.1 102.6 l2.9 -1.6" stroke="#fff" stroke-opacity="0.08" stroke-width="0.9"/><path d="M201.3 32.8 l4.5 -2.5" stroke="#fff" stroke-opacity="0.16" stroke-width="0.6"/><path d="M84.4 78.4 l9.8 -1.1" stroke="#fff" stroke-opacity="0.09" stroke-width="1.0"/><path d="M62.6 14.1 l10.2 -6.2" stroke="#fff" stroke-opacity="0.15" stroke-width="0.9"/><path d="M153.8 73.4 l3.4 -2.4" stroke="#fff" stroke-opacity="0.08" stroke-width="1.0"/><path d="M51.2 28.9 l8.2 6.9" stroke="#fff" stroke-opacity="0.10" stroke-width="0.9"/>
  <rect width="240" height="110" fill="url(#fgl)"/>
  <rect x=".5" y=".5" width="239" height="109" stroke="#fff" stroke-opacity=".3"/><rect width="240" height="110" fill="#fff" fill-opacity=".06"/></g>
  <g transform="matrix(0.88295 0.16057 0.00000 0.93969 -131.77465 -68.43751)">
  <rect width="240" height="140" fill="url(#ff)"/>
  <rect width="240" height="46" fill="#fff" fill-opacity=".06"/>
  <path d="M20 16 H220 M20 38 H220" stroke="#000" stroke-opacity=".12" stroke-width="2"/><path d="M20 17.5 H220 M20 39.5 H220" stroke="#fff" stroke-opacity=".07"/>
  <rect y="45" width="240" height="6" fill="#000" fill-opacity=".45"/><path d="M0 51.6 H240" stroke="#fff" stroke-opacity=".18"/>
  <path d="M20 126 H220" stroke="#000" stroke-opacity=".28" stroke-width="2"/><path d="M20 127.6 H220" stroke="#fff" stroke-opacity=".08"/>
  <rect width="16" height="140" fill="url(#fb)"/><path d="M4 9 h10" stroke="#000" stroke-opacity=".3" stroke-width="2"/><path d="M4 10.6 h10" stroke="#fff" stroke-opacity=".07"/><path d="M4 17 h10" stroke="#000" stroke-opacity=".3" stroke-width="2"/><path d="M4 18.6 h10" stroke="#fff" stroke-opacity=".07"/><path d="M4 25 h10" stroke="#000" stroke-opacity=".3" stroke-width="2"/><path d="M4 26.6 h10" stroke="#fff" stroke-opacity=".07"/><path d="M4 33 h10" stroke="#000" stroke-opacity=".3" stroke-width="2"/><path d="M4 34.6 h10" stroke="#fff" stroke-opacity=".07"/><path d="M4 41 h10" stroke="#000" stroke-opacity=".3" stroke-width="2"/><path d="M4 42.6 h10" stroke="#fff" stroke-opacity=".07"/><path d="M4 49 h10" stroke="#000" stroke-opacity=".3" stroke-width="2"/><path d="M4 50.6 h10" stroke="#fff" stroke-opacity=".07"/><path d="M4 57 h10" stroke="#000" stroke-opacity=".3" stroke-width="2"/><path d="M4 58.6 h10" stroke="#fff" stroke-opacity=".07"/><path d="M4 65 h10" stroke="#000" stroke-opacity=".3" stroke-width="2"/><path d="M4 66.6 h10" stroke="#fff" stroke-opacity=".07"/><path d="M4 73 h10" stroke="#000" stroke-opacity=".3" stroke-width="2"/><path d="M4 74.6 h10" stroke="#fff" stroke-opacity=".07"/><path d="M4 81 h10" stroke="#000" stroke-opacity=".3" stroke-width="2"/><path d="M4 82.6 h10" stroke="#fff" stroke-opacity=".07"/><path d="M4 89 h10" stroke="#000" stroke-opacity=".3" stroke-width="2"/><path d="M4 90.6 h10" stroke="#fff" stroke-opacity=".07"/><path d="M4 97 h10" stroke="#000" stroke-opacity=".3" stroke-width="2"/><path d="M4 98.6 h10" stroke="#fff" stroke-opacity=".07"/><path d="M4 105 h10" stroke="#000" stroke-opacity=".3" stroke-width="2"/><path d="M4 106.6 h10" stroke="#fff" stroke-opacity=".07"/><path d="M4 113 h10" stroke="#000" stroke-opacity=".3" stroke-width="2"/><path d="M4 114.6 h10" stroke="#fff" stroke-opacity=".07"/><path d="M4 121 h10" stroke="#000" stroke-opacity=".3" stroke-width="2"/><path d="M4 122.6 h10" stroke="#fff" stroke-opacity=".07"/><path d="M4 129 h10" stroke="#000" stroke-opacity=".3" stroke-width="2"/><path d="M4 130.6 h10" stroke="#fff" stroke-opacity=".07"/>
  <rect x="224" width="16" height="140" fill="url(#fb)"/><path d="M227 9 h10" stroke="#000" stroke-opacity=".3" stroke-width="2"/><path d="M227 10.6 h10" stroke="#fff" stroke-opacity=".07"/><path d="M227 17 h10" stroke="#000" stroke-opacity=".3" stroke-width="2"/><path d="M227 18.6 h10" stroke="#fff" stroke-opacity=".07"/><path d="M227 25 h10" stroke="#000" stroke-opacity=".3" stroke-width="2"/><path d="M227 26.6 h10" stroke="#fff" stroke-opacity=".07"/><path d="M227 33 h10" stroke="#000" stroke-opacity=".3" stroke-width="2"/><path d="M227 34.6 h10" stroke="#fff" stroke-opacity=".07"/><path d="M227 41 h10" stroke="#000" stroke-opacity=".3" stroke-width="2"/><path d="M227 42.6 h10" stroke="#fff" stroke-opacity=".07"/><path d="M227 49 h10" stroke="#000" stroke-opacity=".3" stroke-width="2"/><path d="M227 50.6 h10" stroke="#fff" stroke-opacity=".07"/><path d="M227 57 h10" stroke="#000" stroke-opacity=".3" stroke-width="2"/><path d="M227 58.6 h10" stroke="#fff" stroke-opacity=".07"/><path d="M227 65 h10" stroke="#000" stroke-opacity=".3" stroke-width="2"/><path d="M227 66.6 h10" stroke="#fff" stroke-opacity=".07"/><path d="M227 73 h10" stroke="#000" stroke-opacity=".3" stroke-width="2"/><path d="M227 74.6 h10" stroke="#fff" stroke-opacity=".07"/><path d="M227 81 h10" stroke="#000" stroke-opacity=".3" stroke-width="2"/><path d="M227 82.6 h10" stroke="#fff" stroke-opacity=".07"/><path d="M227 89 h10" stroke="#000" stroke-opacity=".3" stroke-width="2"/><path d="M227 90.6 h10" stroke="#fff" stroke-opacity=".07"/><path d="M227 97 h10" stroke="#000" stroke-opacity=".3" stroke-width="2"/><path d="M227 98.6 h10" stroke="#fff" stroke-opacity=".07"/><path d="M227 105 h10" stroke="#000" stroke-opacity=".3" stroke-width="2"/><path d="M227 106.6 h10" stroke="#fff" stroke-opacity=".07"/><path d="M227 113 h10" stroke="#000" stroke-opacity=".3" stroke-width="2"/><path d="M227 114.6 h10" stroke="#fff" stroke-opacity=".07"/><path d="M227 121 h10" stroke="#000" stroke-opacity=".3" stroke-width="2"/><path d="M227 122.6 h10" stroke="#fff" stroke-opacity=".07"/><path d="M227 129 h10" stroke="#000" stroke-opacity=".3" stroke-width="2"/><path d="M227 130.6 h10" stroke="#fff" stroke-opacity=".07"/>
  <g transform="rotate(-2.5 180 22)">
    <rect x="152" y="8" width="60" height="28" rx="1.5" fill="#000" fill-opacity=".25" transform="translate(1 1.5)"/>
    <rect x="152" y="8" width="60" height="28" rx="1.5" fill="#eeece4"/>
    <text x="156" y="15.5" font-family="Arial, sans-serif" font-weight="700" font-size="5.2" fill="#23262c">GRADERUP SUPPLY</text>
    <path d="M156 19 h36" stroke="#23262c" stroke-opacity=".55" stroke-width="1.2"/>
    <rect x="157" y="24" width="1.5" height="8" fill="#23262c"/><rect x="159.1" y="24" width="0.9" height="8" fill="#23262c"/><rect x="161.2" y="24" width="0.9" height="8" fill="#23262c"/><rect x="163.3" y="24" width="0.9" height="8" fill="#23262c"/><rect x="165.4" y="24" width="1.5" height="8" fill="#23262c"/><rect x="167.5" y="24" width="1.5" height="8" fill="#23262c"/><rect x="169.6" y="24" width="0.9" height="8" fill="#23262c"/><rect x="171.7" y="24" width="1.5" height="8" fill="#23262c"/><rect x="173.8" y="24" width="1.5" height="8" fill="#23262c"/><rect x="175.9" y="24" width="1.5" height="8" fill="#23262c"/><rect x="178" y="24" width="0.9" height="8" fill="#23262c"/><rect x="180.1" y="24" width="1.5" height="8" fill="#23262c"/><rect x="182.2" y="24" width="0.9" height="8" fill="#23262c"/><rect x="184.3" y="24" width="1.5" height="8" fill="#23262c"/><rect x="186.4" y="24" width="0.9" height="8" fill="#23262c"/><rect x="188.5" y="24" width="1.5" height="8" fill="#23262c"/>
    <text x="191" y="32" font-family="Arial, sans-serif" font-weight="700" font-size="4.8" fill="#a6926d">EXP-589</text>
  </g>
  <circle cx="44" cy="24" r="11.5" fill="#000" fill-opacity=".3" transform="translate(1 1.5)"/>
  <circle cx="44" cy="24" r="11.5" fill="#ffe0a8"/><circle cx="44" cy="24" r="8.7" fill="#101318"/>
  <path d="M44 18 L45.8 22.2 L50.3 22.5 L46.9 25.3 L48 29.6 L44 27.2 L40 29.6 L41.1 25.3 L37.7 22.5 L42.2 22.2 Z" fill="#ffe0a8"/>
  <rect x="59.2" y="62" width="124" height="58" rx="6" fill="#000" fill-opacity=".3"/>
  <rect x="58" y="60" width="124" height="58" rx="6" fill="#0d1015"/>
  <g clip-path="url(#fst)">
    <rect x="58" y="60" width="124" height="58" fill="#ffe0a8" fill-opacity=".1"/>
    <path d="M58 64 H182" stroke="#fff" stroke-opacity=".035"/><path d="M58 70 H182" stroke="#fff" stroke-opacity=".035"/><path d="M58 76 H182" stroke="#fff" stroke-opacity=".035"/><path d="M58 82 H182" stroke="#fff" stroke-opacity=".035"/><path d="M58 88 H182" stroke="#fff" stroke-opacity=".035"/><path d="M58 94 H182" stroke="#fff" stroke-opacity=".035"/><path d="M58 100 H182" stroke="#fff" stroke-opacity=".035"/><path d="M58 106 H182" stroke="#fff" stroke-opacity=".035"/><path d="M58 112 H182" stroke="#fff" stroke-opacity=".035"/><path d="M58 118 H182" stroke="#fff" stroke-opacity=".035"/>
    <g transform="translate(-3 0)" opacity=".85"><g transform="translate(60 50) scale(.6)" filter="url(#fr)">
    <path d="M36 50 H150 Q158 50 158 58 V70 H36 Z" fill="url(#m)"/>
    <path d="M158 58 H182 V64 H158 Z" fill="url(#d)"/>
    <path d="M70 70 H96 L92 118 H74 Z" fill="url(#d)"/>
    <path d="M110 70 H126 L130 100 H116 Z" fill="url(#m)"/>
    <path d="M36 54 L18 60 V84 L40 70 Z" fill="url(#d)"/>
    <rect x="44" y="40" width="40" height="8" rx="2" fill="url(#acc)"/></g></g>
    <g transform="translate(3 0)" opacity=".85"><g transform="translate(60 50) scale(.6)" filter="url(#fc)">
    <path d="M36 50 H150 Q158 50 158 58 V70 H36 Z" fill="url(#m)"/>
    <path d="M158 58 H182 V64 H158 Z" fill="url(#d)"/>
    <path d="M70 70 H96 L92 118 H74 Z" fill="url(#d)"/>
    <path d="M110 70 H126 L130 100 H116 Z" fill="url(#m)"/>
    <path d="M36 54 L18 60 V84 L40 70 Z" fill="url(#d)"/>
    <rect x="44" y="40" width="40" height="8" rx="2" fill="url(#acc)"/></g></g>
    <g transform="translate(60 50) scale(.6)">
    <path d="M36 50 H150 Q158 50 158 58 V70 H36 Z" fill="url(#m)"/>
    <path d="M158 58 H182 V64 H158 Z" fill="url(#d)"/>
    <path d="M70 70 H96 L92 118 H74 Z" fill="url(#d)"/>
    <path d="M110 70 H126 L130 100 H116 Z" fill="url(#m)"/>
    <path d="M36 54 L18 60 V84 L40 70 Z" fill="url(#d)"/>
    <rect x="44" y="40" width="40" height="8" rx="2" fill="url(#acc)"/></g>
    <g clip-path="url(#fs1)" transform="translate(7 0)"><g transform="translate(60 50) scale(.6)">
    <path d="M36 50 H150 Q158 50 158 58 V70 H36 Z" fill="url(#m)"/>
    <path d="M158 58 H182 V64 H158 Z" fill="url(#d)"/>
    <path d="M70 70 H96 L92 118 H74 Z" fill="url(#d)"/>
    <path d="M110 70 H126 L130 100 H116 Z" fill="url(#m)"/>
    <path d="M36 54 L18 60 V84 L40 70 Z" fill="url(#d)"/>
    <rect x="44" y="40" width="40" height="8" rx="2" fill="url(#acc)"/></g></g>
    <g clip-path="url(#fs2)" transform="translate(-6 0)"><g transform="translate(60 50) scale(.6)">
    <path d="M36 50 H150 Q158 50 158 58 V70 H36 Z" fill="url(#m)"/>
    <path d="M158 58 H182 V64 H158 Z" fill="url(#d)"/>
    <path d="M70 70 H96 L92 118 H74 Z" fill="url(#d)"/>
    <path d="M110 70 H126 L130 100 H116 Z" fill="url(#m)"/>
    <path d="M36 54 L18 60 V84 L40 70 Z" fill="url(#d)"/>
    <rect x="44" y="40" width="40" height="8" rx="2" fill="url(#acc)"/></g></g>
  </g>
  <rect x="58" y="60" width="124" height="58" rx="6" stroke="#ffe0a8" stroke-opacity=".85" stroke-width="1.6"/>
  <path d="M63 65 h10 M63 65 v7 M177 113 h-10 M177 113 v-7" stroke="#ffe0a8" stroke-width="1.6"/>
  
    <rect x="23.5" y="38.5" width="24" height="36" rx="3.5" fill="#000" fill-opacity=".35"/>
    <rect x="22" y="36" width="24" height="36" rx="3.5" fill="url(#fmt)"/>
    <rect x="26" y="45" width="16" height="22" rx="2.5" fill="url(#fmd)"/>
    <path d="M26 50 h16" stroke="#000" stroke-opacity=".35" stroke-width="1.2"/>
    <rect x="29" y="38" width="10" height="5" rx="1.5" fill="#1b1d22"/>
    <path d="M23.5 37.5 h21" stroke="#fff" stroke-opacity=".6"/>
    <rect x="195.5" y="38.5" width="24" height="36" rx="3.5" fill="#000" fill-opacity=".35"/>
    <rect x="194" y="36" width="24" height="36" rx="3.5" fill="url(#fmt)"/>
    <rect x="198" y="45" width="16" height="22" rx="2.5" fill="url(#fmd)"/>
    <path d="M198 50 h16" stroke="#000" stroke-opacity=".35" stroke-width="1.2"/>
    <rect x="201" y="38" width="10" height="5" rx="1.5" fill="#1b1d22"/>
    <path d="M195.5 37.5 h21" stroke="#fff" stroke-opacity=".6"/>
  <rect x="108" y="38" width="24" height="19" rx="3" fill="url(#fmt)"/>
  <circle cx="120" cy="45.5" r="2.6" fill="#1b1d22"/><rect x="119" y="46.5" width="2" height="6" rx="1" fill="#1b1d22"/>
  <text x="120.6" y="136.6" text-anchor="middle" font-family="Arial Black, Arial, sans-serif" font-weight="900" font-size="7.5" letter-spacing="3" fill="#fff" fill-opacity=".14">GRADERUP</text>
  <text x="120" y="136" text-anchor="middle" font-family="Arial Black, Arial, sans-serif" font-weight="900" font-size="7.5" letter-spacing="3" fill="#000" fill-opacity=".42">GRADERUP</text>
  <path d="M71.8 43.7 l7.8 3.7" stroke="#fff" stroke-opacity="0.08" stroke-width="0.6"/><path d="M88.4 7.8 l11.8 1.8" stroke="#fff" stroke-opacity="0.09" stroke-width="0.8"/><path d="M88.8 25.3 l9.2 -5.3" stroke="#fff" stroke-opacity="0.12" stroke-width="0.8"/><path d="M222.2 123.8 l7.5 -2.4" stroke="#fff" stroke-opacity="0.14" stroke-width="0.9"/><path d="M215.6 111.0 l5.3 -3.4" stroke="#fff" stroke-opacity="0.17" stroke-width="0.6"/><path d="M24.6 8.7 l6.5 1.1" stroke="#fff" stroke-opacity="0.16" stroke-width="1.0"/><path d="M189.1 45.7 l4.7 3.3" stroke="#fff" stroke-opacity="0.05" stroke-width="1.0"/><path d="M75.9 10.6 l8.6 -3.6" stroke="#fff" stroke-opacity="0.10" stroke-width="1.2"/><path d="M197.1 90.1 l7.1 -1.1" stroke="#fff" stroke-opacity="0.06" stroke-width="1.0"/><path d="M218.8 95.1 l11.7 -7.4" stroke="#fff" stroke-opacity="0.08" stroke-width="0.6"/><path d="M7.7 57.1 l5.7 -0.3" stroke="#fff" stroke-opacity="0.13" stroke-width="0.7"/><path d="M77.7 73.3 l11.4 -4.0" stroke="#fff" stroke-opacity="0.05" stroke-width="0.6"/><path d="M220.7 108.2 l7.3 1.2" stroke="#fff" stroke-opacity="0.11" stroke-width="0.9"/><path d="M64.0 87.6 l6.6 4.3" stroke="#fff" stroke-opacity="0.14" stroke-width="1.1"/><path d="M106.1 30.5 l10.7 2.0" stroke="#fff" stroke-opacity="0.17" stroke-width="0.6"/><path d="M165.8 6.7 l11.2 5.9" stroke="#fff" stroke-opacity="0.17" stroke-width="0.7"/><path d="M73.0 37.4 l9.5 2.4" stroke="#fff" stroke-opacity="0.14" stroke-width="0.7"/><path d="M80.6 107.2 l9.0 -2.5" stroke="#fff" stroke-opacity="0.15" stroke-width="1.0"/><path d="M81.9 43.9 l13.7 2.7" stroke="#fff" stroke-opacity="0.12" stroke-width="0.9"/><path d="M47.8 68.8 l7.1 -4.8" stroke="#fff" stroke-opacity="0.08" stroke-width="0.6"/><path d="M9.5 66.2 l5.3 3.1" stroke="#fff" stroke-opacity="0.07" stroke-width="0.7"/><path d="M221.4 45.4 l6.5 -2.5" stroke="#fff" stroke-opacity="0.16" stroke-width="0.9"/><path d="M176.8 111.8 l5.2 2.1" stroke="#fff" stroke-opacity="0.11" stroke-width="0.8"/><path d="M92.4 92.5 l9.1 6.3" stroke="#fff" stroke-opacity="0.11" stroke-width="0.7"/><path d="M185.4 63.6 l6.0 1.4" stroke="#fff" stroke-opacity="0.05" stroke-width="1.3"/><path d="M71.9 103.9 l4.6 3.3" stroke="#fff" stroke-opacity="0.11" stroke-width="0.9"/><path d="M171.5 25.8 l12.3 -3.5" stroke="#fff" stroke-opacity="0.08" stroke-width="1.2"/><path d="M200.3 121.5 l9.0 -1.0" stroke="#fff" stroke-opacity="0.14" stroke-width="0.8"/><path d="M206.3 82.6 l10.3 0.7" stroke="#fff" stroke-opacity="0.06" stroke-width="1.0"/><path d="M142.6 82.2 l6.2 -3.9" stroke="#fff" stroke-opacity="0.11" stroke-width="1.1"/>
  <rect width="240" height="140" fill="url(#fgl)"/>
  <rect x=".5" y=".5" width="239" height="139" stroke="#fff" stroke-opacity=".22"/>
  <path d="M0 .8 H240" stroke="#fff" stroke-opacity=".5" stroke-width="1.6"/></g>
</svg>
