<svg xmlns="http://www.w3.org/2000/svg" viewBox="0 0 260 200" fill="none">
  <defs>
    <linearGradient id="kukrif" x1="0" y1="0" x2="0" y2="1"><stop offset="0" stop-color="#3e6b2f"/><stop offset=".55" stop-color="#2f5223"/><stop offset="1" stop-color="#12240c"/></linearGradient>
    <linearGradient id="kukrit" x1="0" y1="0" x2="0" y2="1"><stop offset="0" stop-color="#89a480"/><stop offset="1" stop-color="#749469"/></linearGradient>
    <linearGradient id="kukrib" x1="0" y1="0" x2="1" y2="0"><stop offset="0" stop-color="#0c1708"/><stop offset=".5" stop-color="#1f2a1c"/><stop offset="1" stop-color="#0c1708"/></linearGradient>
    <linearGradient id="kukrigl" x1="0" y1="0" x2="1" y2="1"><stop offset="0" stop-color="#fff" stop-opacity=".22"/><stop offset=".45" stop-color="#fff" stop-opacity="0"/></linearGradient>
    <linearGradient id="kukrimt" x1="0" y1="0" x2="0" y2="1"><stop offset="0" stop-color="#eef0f3"/><stop offset=".5" stop-color="#a9aeb7"/><stop offset="1" stop-color="#6c717b"/></linearGradient>
    <linearGradient id="kukrimd" x1="0" y1="0" x2="0" y2="1"><stop offset="0" stop-color="#9097a2"/><stop offset="1" stop-color="#4a4f58"/></linearGradient>
    <linearGradient id="m" x1="0" y1="0" x2="0" y2="1"><stop offset="0" stop-color="#f4f6fa"/><stop offset="1" stop-color="#9aa3b3"/></linearGradient>
    <linearGradient id="d" x1="0" y1="0" x2="0" y2="1"><stop offset="0" stop-color="#3a4457"/><stop offset="1" stop-color="#151a24"/></linearGradient>
    <linearGradient id="acc" x1="0" y1="0" x2="1" y2="1"><stop offset="0" stop-color="#d8ff9e"/><stop offset="1" stop-color="#8bb567"/></linearGradient>
    <filter id="kukribl" x="-20%" y="-50%" width="140%" height="200%"><feGaussianBlur stdDeviation="5"/></filter>
    <filter id="kukrir" x="-10%" y="-10%" width="120%" height="120%"><feFlood flood-color="#ff2d55"/><feComposite in2="SourceAlpha" operator="in"/></filter>
    <filter id="kukric" x="-10%" y="-10%" width="120%" height="120%"><feFlood flood-color="#19e3ff"/><feComposite in2="SourceAlpha" operator="in"/></filter>
    <clipPath id="kukriclip"><path d="M36 30 H224 Q230 30 234 36 L244 50 V173 Q244 182 235 182 H25 Q16 182 16 173 V50 L26 36 Q30 30 36 30 Z"/></clipPath>
    <clipPath id="kukrist"><rect x="64" y="105" width="132" height="62" rx="6"/></clipPath>
    <clipPath id="kukris1"><rect x="0" y="112" width="260" height="7"/></clipPath>
    <clipPath id="kukris2"><rect x="0" y="140" width="260" height="5"/></clipPath>
  </defs>
  <ellipse cx="130" cy="186" rx="112" ry="9" fill="#000" fill-opacity=".55" filter="url(#kukribl)"/>
  <!-- side handles -->
  <rect x="7" y="110" width="12" height="28" rx="3.5" fill="#15171b"/><rect x="9" y="113" width="3" height="22" rx="1.5" fill="#fff" fill-opacity=".08"/>
  <rect x="241" y="110" width="12" height="28" rx="3.5" fill="#15171b"/>
  <!-- lid top -->
  <path d="M36 30 H224 Q230 30 234 36 L244 50 H16 L26 36 Q30 30 36 30 Z" fill="url(#kukrit)"/>
  <path d="M30 34 H230" stroke="#fff" stroke-opacity=".35" stroke-width="1"/>
  <rect x="92" y="35" width="10" height="8" rx="2" fill="#1e2024"/><rect x="158" y="35" width="10" height="8" rx="2" fill="#1e2024"/>
  <rect x="98" y="33" width="64" height="9" rx="4.5" fill="#17191d"/><path d="M102 35 h56" stroke="#fff" stroke-opacity=".18" stroke-width="1.2"/>
  <!-- front -->
  <rect x="16" y="50" width="228" height="132" rx="9" fill="url(#kukrif)"/>
  <rect x="16" y="50" width="228" height="48" rx="9" fill="#fff" fill-opacity=".05"/>
  <path d="M40 64 H220 M40 90 H220" stroke="#000" stroke-opacity=".12" stroke-width="2"/>
  <path d="M40 65.5 H220 M40 91.5 H220" stroke="#fff" stroke-opacity=".06" stroke-width="1"/>
  <g clip-path="url(#kukriclip)"><g transform="rotate(-36 60 64)">
         <rect x="-40" y="58" width="170" height="13" fill="#ede655"/>
         <path d="M-40 71 l7 -13 h5 l-7 13 z" fill="#111"/><path d="M-29 71 l7 -13 h5 l-7 13 z" fill="#111"/><path d="M-18 71 l7 -13 h5 l-7 13 z" fill="#111"/><path d="M-7 71 l7 -13 h5 l-7 13 z" fill="#111"/><path d="M4 71 l7 -13 h5 l-7 13 z" fill="#111"/><path d="M15 71 l7 -13 h5 l-7 13 z" fill="#111"/><path d="M26 71 l7 -13 h5 l-7 13 z" fill="#111"/><path d="M37 71 l7 -13 h5 l-7 13 z" fill="#111"/><path d="M48 71 l7 -13 h5 l-7 13 z" fill="#111"/><path d="M59 71 l7 -13 h5 l-7 13 z" fill="#111"/><path d="M70 71 l7 -13 h5 l-7 13 z" fill="#111"/><path d="M81 71 l7 -13 h5 l-7 13 z" fill="#111"/><path d="M92 71 l7 -13 h5 l-7 13 z" fill="#111"/><path d="M103 71 l7 -13 h5 l-7 13 z" fill="#111"/><path d="M114 71 l7 -13 h5 l-7 13 z" fill="#111"/><path d="M125 71 l7 -13 h5 l-7 13 z" fill="#111"/><path d="M136 71 l7 -13 h5 l-7 13 z" fill="#111"/><path d="M147 71 l7 -13 h5 l-7 13 z" fill="#111"/>
         <rect x="-40" y="58" width="170" height="13" fill="none" stroke="#000" stroke-opacity=".35"/>
       </g></g>
  <!-- seam -->
  <rect x="16" y="97" width="228" height="6" fill="#000" fill-opacity=".45"/>
  <path d="M16 103.8 H244" stroke="#fff" stroke-opacity=".16" stroke-width="1"/>
  <path d="M40 170 H220" stroke="#000" stroke-opacity=".28" stroke-width="2"/><path d="M40 171.6 H220" stroke="#fff" stroke-opacity=".08" stroke-width="1"/>
  <!-- bumpers -->
  <rect x="16" y="50" width="20" height="132" rx="9" fill="url(#kukrib)"/><path d="M20 60 h10" stroke="#000" stroke-opacity=".32" stroke-width="2"/><path d="M20 61.6 h10" stroke="#fff" stroke-opacity=".06" stroke-width="1"/><path d="M20 68.4 h10" stroke="#000" stroke-opacity=".32" stroke-width="2"/><path d="M20 70 h10" stroke="#fff" stroke-opacity=".06" stroke-width="1"/><path d="M20 76.8 h10" stroke="#000" stroke-opacity=".32" stroke-width="2"/><path d="M20 78.4 h10" stroke="#fff" stroke-opacity=".06" stroke-width="1"/><path d="M20 85.2 h10" stroke="#000" stroke-opacity=".32" stroke-width="2"/><path d="M20 86.80000000000001 h10" stroke="#fff" stroke-opacity=".06" stroke-width="1"/><path d="M20 93.6 h10" stroke="#000" stroke-opacity=".32" stroke-width="2"/><path d="M20 95.2 h10" stroke="#fff" stroke-opacity=".06" stroke-width="1"/><path d="M20 102 h10" stroke="#000" stroke-opacity=".32" stroke-width="2"/><path d="M20 103.6 h10" stroke="#fff" stroke-opacity=".06" stroke-width="1"/><path d="M20 110.4 h10" stroke="#000" stroke-opacity=".32" stroke-width="2"/><path d="M20 112 h10" stroke="#fff" stroke-opacity=".06" stroke-width="1"/><path d="M20 118.80000000000001 h10" stroke="#000" stroke-opacity=".32" stroke-width="2"/><path d="M20 120.4 h10" stroke="#fff" stroke-opacity=".06" stroke-width="1"/><path d="M20 127.2 h10" stroke="#000" stroke-opacity=".32" stroke-width="2"/><path d="M20 128.8 h10" stroke="#fff" stroke-opacity=".06" stroke-width="1"/><path d="M20 135.60000000000002 h10" stroke="#000" stroke-opacity=".32" stroke-width="2"/><path d="M20 137.20000000000002 h10" stroke="#fff" stroke-opacity=".06" stroke-width="1"/><path d="M20 144 h10" stroke="#000" stroke-opacity=".32" stroke-width="2"/><path d="M20 145.6 h10" stroke="#fff" stroke-opacity=".06" stroke-width="1"/><path d="M20 152.4 h10" stroke="#000" stroke-opacity=".32" stroke-width="2"/><path d="M20 154 h10" stroke="#fff" stroke-opacity=".06" stroke-width="1"/><path d="M20 160.8 h10" stroke="#000" stroke-opacity=".32" stroke-width="2"/><path d="M20 162.4 h10" stroke="#fff" stroke-opacity=".06" stroke-width="1"/><path d="M20 169.2 h10" stroke="#000" stroke-opacity=".32" stroke-width="2"/><path d="M20 170.8 h10" stroke="#fff" stroke-opacity=".06" stroke-width="1"/>
  <rect x="224" y="50" width="20" height="132" rx="9" fill="url(#kukrib)"/><path d="M228 60 h10" stroke="#000" stroke-opacity=".32" stroke-width="2"/><path d="M228 61.6 h10" stroke="#fff" stroke-opacity=".06" stroke-width="1"/><path d="M228 68.4 h10" stroke="#000" stroke-opacity=".32" stroke-width="2"/><path d="M228 70 h10" stroke="#fff" stroke-opacity=".06" stroke-width="1"/><path d="M228 76.8 h10" stroke="#000" stroke-opacity=".32" stroke-width="2"/><path d="M228 78.4 h10" stroke="#fff" stroke-opacity=".06" stroke-width="1"/><path d="M228 85.2 h10" stroke="#000" stroke-opacity=".32" stroke-width="2"/><path d="M228 86.80000000000001 h10" stroke="#fff" stroke-opacity=".06" stroke-width="1"/><path d="M228 93.6 h10" stroke="#000" stroke-opacity=".32" stroke-width="2"/><path d="M228 95.2 h10" stroke="#fff" stroke-opacity=".06" stroke-width="1"/><path d="M228 102 h10" stroke="#000" stroke-opacity=".32" stroke-width="2"/><path d="M228 103.6 h10" stroke="#fff" stroke-opacity=".06" stroke-width="1"/><path d="M228 110.4 h10" stroke="#000" stroke-opacity=".32" stroke-width="2"/><path d="M228 112 h10" stroke="#fff" stroke-opacity=".06" stroke-width="1"/><path d="M228 118.80000000000001 h10" stroke="#000" stroke-opacity=".32" stroke-width="2"/><path d="M228 120.4 h10" stroke="#fff" stroke-opacity=".06" stroke-width="1"/><path d="M228 127.2 h10" stroke="#000" stroke-opacity=".32" stroke-width="2"/><path d="M228 128.8 h10" stroke="#fff" stroke-opacity=".06" stroke-width="1"/><path d="M228 135.60000000000002 h10" stroke="#000" stroke-opacity=".32" stroke-width="2"/><path d="M228 137.20000000000002 h10" stroke="#fff" stroke-opacity=".06" stroke-width="1"/><path d="M228 144 h10" stroke="#000" stroke-opacity=".32" stroke-width="2"/><path d="M228 145.6 h10" stroke="#fff" stroke-opacity=".06" stroke-width="1"/><path d="M228 152.4 h10" stroke="#000" stroke-opacity=".32" stroke-width="2"/><path d="M228 154 h10" stroke="#fff" stroke-opacity=".06" stroke-width="1"/><path d="M228 160.8 h10" stroke="#000" stroke-opacity=".32" stroke-width="2"/><path d="M228 162.4 h10" stroke="#fff" stroke-opacity=".06" stroke-width="1"/><path d="M228 169.2 h10" stroke="#000" stroke-opacity=".32" stroke-width="2"/><path d="M228 170.8 h10" stroke="#fff" stroke-opacity=".06" stroke-width="1"/>
  <!-- paper shipping label -->
  <g transform="rotate(-2.5 180 70)">
    <rect x="149" y="55" width="64" height="29" rx="1.5" fill="#000" fill-opacity=".25" transform="translate(1 1.5)"/>
    <rect x="149" y="55" width="64" height="29" rx="1.5" fill="#eeece4"/>
    <text x="153" y="62.5" font-family="Arial, sans-serif" font-weight="700" font-size="5.4" fill="#23262c">GRADERUP SUPPLY</text>
    <path d="M153 66 h40 M153 69 h28" stroke="#23262c" stroke-opacity=".55" stroke-width="1.2"/>
    <rect x="154" y="72" width="0.9" height="8" fill="#23262c"/><rect x="156.1" y="72" width="1.5" height="8" fill="#23262c"/><rect x="158.2" y="72" width="0.9" height="8" fill="#23262c"/><rect x="160.3" y="72" width="1.5" height="8" fill="#23262c"/><rect x="162.4" y="72" width="0.9" height="8" fill="#23262c"/><rect x="164.5" y="72" width="0.9" height="8" fill="#23262c"/><rect x="166.6" y="72" width="0.9" height="8" fill="#23262c"/><rect x="168.7" y="72" width="0.9" height="8" fill="#23262c"/><rect x="170.8" y="72" width="1.5" height="8" fill="#23262c"/><rect x="172.9" y="72" width="1.5" height="8" fill="#23262c"/><rect x="175" y="72" width="1.5" height="8" fill="#23262c"/><rect x="177.1" y="72" width="0.9" height="8" fill="#23262c"/><rect x="179.2" y="72" width="0.9" height="8" fill="#23262c"/><rect x="181.3" y="72" width="1.5" height="8" fill="#23262c"/><rect x="183.4" y="72" width="1.5" height="8" fill="#23262c"/><rect x="185.5" y="72" width="0.9" height="8" fill="#23262c"/>
    <text x="192" y="79" font-family="Arial, sans-serif" font-weight="700" font-size="5" fill="#8ca667">KUK-323</text>
  </g>
  <!-- round patch -->
  <circle cx="64" cy="74" r="12.5" fill="#000" fill-opacity=".3" transform="translate(1 1.5)"/>
  <circle cx="64" cy="74" r="12.5" fill="#d8ff9e"/><circle cx="64" cy="74" r="9.5" fill="#101318"/>
  <path d="M64 67.5 L66 72 L70.8 72.3 L67.1 75.3 L68.3 80 L64 77.4 L59.7 80 L60.9 75.3 L57.2 72.3 L62 72 Z" fill="#d8ff9e"/>
  <!-- glitch weapon sticker -->
  <rect x="64" y="105" width="132" height="62" rx="6" fill="#000" fill-opacity=".3" transform="translate(1.2 2)"/>
  <rect x="64" y="105" width="132" height="62" rx="6" fill="#0d1015"/>
  <g clip-path="url(#kukrist)">
    <rect x="64" y="105" width="132" height="62" fill="#d8ff9e" fill-opacity=".08"/>
    <path d="M64 110 H196" stroke="#fff" stroke-opacity=".035"/><path d="M64 116 H196" stroke="#fff" stroke-opacity=".035"/><path d="M64 122 H196" stroke="#fff" stroke-opacity=".035"/><path d="M64 128 H196" stroke="#fff" stroke-opacity=".035"/><path d="M64 134 H196" stroke="#fff" stroke-opacity=".035"/><path d="M64 140 H196" stroke="#fff" stroke-opacity=".035"/><path d="M64 146 H196" stroke="#fff" stroke-opacity=".035"/><path d="M64 152 H196" stroke="#fff" stroke-opacity=".035"/><path d="M64 158 H196" stroke="#fff" stroke-opacity=".035"/><path d="M64 164 H196" stroke="#fff" stroke-opacity=".035"/>
    <g transform="translate(-3 0)" opacity=".85"><g transform="translate(68 93) scale(.62) rotate(-12 100 70)" filter="url(#kukrir)"><rect x="18" y="62" width="64" height="16" rx="6" fill="url(#d)"/><rect x="78" y="58" width="8" height="24" rx="2" fill="url(#acc)"/><path d="M86 60 Q120 56 150 70 Q172 82 188 70 Q180 92 150 88 Q118 84 86 80 Z" fill="url(#m)"/><path d="M92 78 Q130 82 170 84" stroke="#fff" stroke-opacity=".55" stroke-width="1.6" fill="none"/></g></g>
    <g transform="translate(3 0)" opacity=".85"><g transform="translate(68 93) scale(.62) rotate(-12 100 70)" filter="url(#kukric)"><rect x="18" y="62" width="64" height="16" rx="6" fill="url(#d)"/><rect x="78" y="58" width="8" height="24" rx="2" fill="url(#acc)"/><path d="M86 60 Q120 56 150 70 Q172 82 188 70 Q180 92 150 88 Q118 84 86 80 Z" fill="url(#m)"/><path d="M92 78 Q130 82 170 84" stroke="#fff" stroke-opacity=".55" stroke-width="1.6" fill="none"/></g></g>
    <g transform="translate(68 93) scale(.62) rotate(-12 100 70)"><rect x="18" y="62" width="64" height="16" rx="6" fill="url(#d)"/><rect x="78" y="58" width="8" height="24" rx="2" fill="url(#acc)"/><path d="M86 60 Q120 56 150 70 Q172 82 188 70 Q180 92 150 88 Q118 84 86 80 Z" fill="url(#m)"/><path d="M92 78 Q130 82 170 84" stroke="#fff" stroke-opacity=".55" stroke-width="1.6" fill="none"/></g>
    <g clip-path="url(#kukris1)" transform="translate(7 0)"><g transform="translate(68 93) scale(.62) rotate(-12 100 70)"><rect x="18" y="62" width="64" height="16" rx="6" fill="url(#d)"/><rect x="78" y="58" width="8" height="24" rx="2" fill="url(#acc)"/><path d="M86 60 Q120 56 150 70 Q172 82 188 70 Q180 92 150 88 Q118 84 86 80 Z" fill="url(#m)"/><path d="M92 78 Q130 82 170 84" stroke="#fff" stroke-opacity=".55" stroke-width="1.6" fill="none"/></g></g>
    <g clip-path="url(#kukris2)" transform="translate(-6 0)"><g transform="translate(68 93) scale(.62) rotate(-12 100 70)"><rect x="18" y="62" width="64" height="16" rx="6" fill="url(#d)"/><rect x="78" y="58" width="8" height="24" rx="2" fill="url(#acc)"/><path d="M86 60 Q120 56 150 70 Q172 82 188 70 Q180 92 150 88 Q118 84 86 80 Z" fill="url(#m)"/><path d="M92 78 Q130 82 170 84" stroke="#fff" stroke-opacity=".55" stroke-width="1.6" fill="none"/></g></g>
  </g>
  <rect x="64" y="105" width="132" height="62" rx="6" stroke="#d8ff9e" stroke-opacity=".8" stroke-width="1.6"/>
  <path d="M69 110 h10 M69 110 v7 M191 162 h-10 M191 162 v-7" stroke="#d8ff9e" stroke-width="1.6"/>
  <!-- latches + padlock plate -->
  
    <rect x="36" y="84" width="26" height="40" rx="3.5" fill="#000" fill-opacity=".35" transform="translate(1.5 2.5)"/>
    <rect x="36" y="84" width="26" height="40" rx="3.5" fill="url(#kukrimt)"/>
    <rect x="40" y="94" width="18" height="24" rx="2.5" fill="url(#kukrimd)"/>
    <path d="M40 99 h18" stroke="#000" stroke-opacity=".35" stroke-width="1.2"/>
    <rect x="44" y="86" width="10" height="5" rx="1.5" fill="#1b1d22"/>
    <circle cx="41" cy="89" r="1.4" fill="#2a2c31"/><circle cx="57" cy="89" r="1.4" fill="#2a2c31"/>
    <path d="M37.5 85.5 h23" stroke="#fff" stroke-opacity=".55" stroke-width="1"/>
    <rect x="198" y="84" width="26" height="40" rx="3.5" fill="#000" fill-opacity=".35" transform="translate(1.5 2.5)"/>
    <rect x="198" y="84" width="26" height="40" rx="3.5" fill="url(#kukrimt)"/>
    <rect x="202" y="94" width="18" height="24" rx="2.5" fill="url(#kukrimd)"/>
    <path d="M202 99 h18" stroke="#000" stroke-opacity=".35" stroke-width="1.2"/>
    <rect x="206" y="86" width="10" height="5" rx="1.5" fill="#1b1d22"/>
    <circle cx="203" cy="89" r="1.4" fill="#2a2c31"/><circle cx="219" cy="89" r="1.4" fill="#2a2c31"/>
    <path d="M199.5 85.5 h23" stroke="#fff" stroke-opacity=".55" stroke-width="1"/>
  <rect x="118" y="88" width="24" height="20" rx="3" fill="url(#kukrimt)"/>
  <circle cx="130" cy="96" r="2.6" fill="#1b1d22"/><rect x="129" y="97" width="2" height="6" rx="1" fill="#1b1d22"/>
  <!-- emboss -->
  <text x="130.6" y="179.7" text-anchor="middle" font-family="Arial Black, Arial, sans-serif" font-weight="900" font-size="7.5" letter-spacing="3" fill="#fff" fill-opacity=".12">GRADERUP</text>
  <text x="130" y="179" text-anchor="middle" font-family="Arial Black, Arial, sans-serif" font-weight="900" font-size="7.5" letter-spacing="3" fill="#000" fill-opacity=".4">GRADERUP</text>
  <g clip-path="url(#kukriclip)"><path d="M152.7 111.2 l8.5 -0.2" stroke="#fff" stroke-opacity="0.16" stroke-width="0.6"/><path d="M24.6 80.8 l8.6 5.8" stroke="#fff" stroke-opacity="0.10" stroke-width="1.2"/><path d="M199.7 155.5 l15.7 2.1" stroke="#fff" stroke-opacity="0.10" stroke-width="0.6"/><path d="M216.4 149.2 l5.6 -1.8" stroke="#fff" stroke-opacity="0.11" stroke-width="1.3"/><path d="M204.4 107.0 l5.0 -3.2" stroke="#fff" stroke-opacity="0.11" stroke-width="0.9"/><path d="M202.4 168.0 l11.6 -7.4" stroke="#fff" stroke-opacity="0.12" stroke-width="1.3"/><path d="M44.9 88.4 l11.6 -1.2" stroke="#fff" stroke-opacity="0.15" stroke-width="1.0"/><path d="M161.5 153.4 l11.4 6.3" stroke="#fff" stroke-opacity="0.13" stroke-width="1.0"/><path d="M149.8 114.3 l7.3 0.3" stroke="#fff" stroke-opacity="0.16" stroke-width="1.3"/><path d="M156.7 165.9 l3.8 2.6" stroke="#fff" stroke-opacity="0.16" stroke-width="1.3"/><path d="M27.2 167.6 l5.5 -2.7" stroke="#fff" stroke-opacity="0.11" stroke-width="0.7"/><path d="M147.7 55.7 l9.8 -5.7" stroke="#fff" stroke-opacity="0.16" stroke-width="0.8"/><path d="M179.8 64.1 l10.2 4.5" stroke="#fff" stroke-opacity="0.08" stroke-width="1.1"/><path d="M158.1 65.5 l4.0 -2.1" stroke="#fff" stroke-opacity="0.15" stroke-width="1.0"/><path d="M133.0 68.9 l5.0 -0.6" stroke="#fff" stroke-opacity="0.15" stroke-width="1.0"/><path d="M24.6 135.7 l8.4 -5.0" stroke="#fff" stroke-opacity="0.11" stroke-width="1.3"/><path d="M85.1 162.5 l5.3 1.4" stroke="#fff" stroke-opacity="0.18" stroke-width="1.1"/><path d="M51.2 136.0 l5.9 -1.3" stroke="#fff" stroke-opacity="0.14" stroke-width="0.8"/><path d="M136.8 142.5 l3.9 -1.2" stroke="#fff" stroke-opacity="0.09" stroke-width="1.3"/><path d="M120.3 58.7 l8.2 6.2" stroke="#fff" stroke-opacity="0.10" stroke-width="0.7"/><path d="M159.0 177.4 l3.1 -0.6" stroke="#fff" stroke-opacity="0.16" stroke-width="0.5"/><path d="M226.4 116.8 l12.6 -4.2" stroke="#fff" stroke-opacity="0.07" stroke-width="0.6"/><path d="M181.9 92.6 l3.2 0.9" stroke="#fff" stroke-opacity="0.06" stroke-width="0.5"/><path d="M188.3 67.5 l10.8 -2.0" stroke="#fff" stroke-opacity="0.11" stroke-width="0.8"/><path d="M131.5 74.6 l10.2 -2.5" stroke="#fff" stroke-opacity="0.07" stroke-width="0.8"/><path d="M114.6 75.3 l6.7 -1.8" stroke="#fff" stroke-opacity="0.08" stroke-width="1.3"/><path d="M208.4 168.3 l5.2 -0.9" stroke="#fff" stroke-opacity="0.09" stroke-width="0.6"/><path d="M112.5 99.6 l5.0 -0.7" stroke="#fff" stroke-opacity="0.14" stroke-width="0.9"/><path d="M34.3 146.5 l8.7 0.7" stroke="#fff" stroke-opacity="0.06" stroke-width="1.3"/><path d="M36.9 99.8 l4.9 2.4" stroke="#fff" stroke-opacity="0.11" stroke-width="1.2"/><path d="M64.8 140.0 l12.0 3.3" stroke="#fff" stroke-opacity="0.06" stroke-width="1.2"/><path d="M123.6 59.6 l7.6 0.8" stroke="#fff" stroke-opacity="0.16" stroke-width="0.5"/><path d="M155.0 89.7 l13.9 5.4" stroke="#fff" stroke-opacity="0.08" stroke-width="0.6"/><path d="M131.6 62.2 l2.4 -1.9" stroke="#fff" stroke-opacity="0.18" stroke-width="0.6"/><ellipse cx="225.6" cy="51.1" rx="2.8" ry="1.0" fill="#fff" fill-opacity="0.36"/><ellipse cx="185.5" cy="179.1" rx="3.3" ry="1.0" fill="#fff" fill-opacity="0.17"/><ellipse cx="165.2" cy="52.0" rx="2.8" ry="0.8" fill="#fff" fill-opacity="0.16"/><ellipse cx="193.5" cy="52.1" rx="1.8" ry="1.2" fill="#fff" fill-opacity="0.27"/><ellipse cx="50.7" cy="52.0" rx="3.0" ry="1.1" fill="#fff" fill-opacity="0.17"/><ellipse cx="170.6" cy="179.8" rx="1.5" ry="1.0" fill="#fff" fill-opacity="0.16"/><ellipse cx="67.2" cy="180.1" rx="3.9" ry="1.1" fill="#fff" fill-opacity="0.30"/><ellipse cx="204.0" cy="180.5" rx="2.8" ry="1.4" fill="#fff" fill-opacity="0.26"/><ellipse cx="93.2" cy="180.9" rx="2.3" ry="0.8" fill="#fff" fill-opacity="0.32"/><ellipse cx="105.6" cy="51.7" rx="3.9" ry="1.0" fill="#fff" fill-opacity="0.21"/><ellipse cx="193.2" cy="52.9" rx="2.4" ry="1.4" fill="#fff" fill-opacity="0.39"/><ellipse cx="111.8" cy="180.5" rx="1.5" ry="0.9" fill="#fff" fill-opacity="0.28"/><ellipse cx="191.2" cy="180.8" rx="1.7" ry="1.0" fill="#fff" fill-opacity="0.22"/><ellipse cx="80.0" cy="179.9" rx="3.6" ry="0.9" fill="#fff" fill-opacity="0.26"/></g>
  <rect x="16" y="50" width="228" height="132" rx="9" fill="url(#kukrigl)"/>
  <rect x="16.5" y="50.5" width="227" height="131" rx="8.5" stroke="#fff" stroke-opacity=".14"/>
</svg>
