<svg xmlns="http://www.w3.org/2000/svg" viewBox="0 0 200 160" fill="none">
  <defs>
    <linearGradient id="quantumt" x1="0" y1="0" x2="1" y2="1"><stop offset="0" stop-color="#4FE3FF"/><stop offset="1" stop-color="#281A6B"/></linearGradient>
    <linearGradient id="quantuml" x1="0" y1="0" x2="0" y2="1"><stop offset="0" stop-color="#281A6B"/><stop offset="1" stop-color="#0A0D14"/></linearGradient>
    <linearGradient id="quantumr" x1="0" y1="0" x2="0" y2="1"><stop offset="0" stop-color="#4FE3FF" stop-opacity=".75"/><stop offset="1" stop-color="#281A6B"/></linearGradient>
    <radialGradient id="quantumg" cx=".5" cy=".55" r=".5"><stop offset="0" stop-color="#4FE3FF" stop-opacity=".45"/><stop offset="1" stop-color="#4FE3FF" stop-opacity="0"/></radialGradient>
  </defs>
  <ellipse cx="100" cy="92" rx="92" ry="60" fill="url(#quantumg)"/>
  <path d="M100 22 L172 50 L100 78 L28 50 Z" fill="url(#quantumt)"/>
  <path d="M28 50 L100 78 V146 L28 118 Z" fill="url(#quantuml)"/>
  <path d="M172 50 L100 78 V146 L172 118 Z" fill="url(#quantumr)"/>
  <path d="M28 50 L100 78 L172 50" stroke="#fff" stroke-opacity=".35" stroke-width="1.5"/>
  <path d="M100 78 V146" stroke="#fff" stroke-opacity=".18" stroke-width="1.5"/>
  <path d="M64 36 L136 64" stroke="#fff" stroke-opacity=".22" stroke-width="6"/>
  <g transform="translate(36 34) scale(.64)" opacity=".95"><path d="M100 54 L126 68 V98 L100 112 L74 98 V68 Z M74 68 L100 82 L126 68 M100 82 V112" fill="#fff" fill-opacity=".92" fill-rule="evenodd" stroke="#fff" stroke-opacity=".6" stroke-width="2"/></g>
</svg>
