<svg xmlns="http://www.w3.org/2000/svg" viewBox="0 0 260 190" fill="none">
  <defs>
    <linearGradient id="steelf" x1="0" y1="0" x2="0" y2="1"><stop offset="0" stop-color="#9aa5b4"/><stop offset="1" stop-color="#39414d"/></linearGradient>
    <linearGradient id="steelt" x1="0" y1="0" x2="1" y2="1"><stop offset="0" stop-color="#9aa5b4"/><stop offset=".5" stop-color="#9aa5b4" stop-opacity=".95"/><stop offset="1" stop-color="#39414d"/></linearGradient>
    <linearGradient id="steels" x1="0" y1="0" x2="1" y2="0"><stop offset="0" stop-color="#39414d"/><stop offset="1" stop-color="#07090c"/></linearGradient>
    <linearGradient id="steelm" x1="0" y1="0" x2="0" y2="1"><stop offset="0" stop-color="#f1ede2"/><stop offset="1" stop-color="#8a8272"/></linearGradient>
    <linearGradient id="steelp" x1="0" y1="0" x2="0" y2="1"><stop offset="0" stop-color="#000" stop-opacity=".35"/><stop offset="1" stop-color="#000" stop-opacity=".55"/></linearGradient>
    <radialGradient id="steelg" cx=".5" cy=".62" r=".55"><stop offset="0" stop-color="#e8eef6" stop-opacity=".35"/><stop offset="1" stop-color="#e8eef6" stop-opacity="0"/></radialGradient>
    <linearGradient id="m" x1="0" y1="0" x2="0" y2="1"><stop offset="0" stop-color="#f4f6fa"/><stop offset="1" stop-color="#9aa3b3"/></linearGradient>
    <linearGradient id="d" x1="0" y1="0" x2="0" y2="1"><stop offset="0" stop-color="#3a4457"/><stop offset="1" stop-color="#151a24"/></linearGradient>
    <linearGradient id="acc" x1="0" y1="0" x2="1" y2="1"><stop offset="0" stop-color="#e8eef6"/><stop offset="1" stop-color="#9aa5b4"/></linearGradient>
    <filter id="steelsh" x="-10%" y="-10%" width="120%" height="140%"><feDropShadow dx="0" dy="10" stdDeviation="7" flood-color="#000" flood-opacity=".6"/></filter>
    <filter id="steelws" x="-20%" y="-20%" width="140%" height="160%"><feDropShadow dx="0" dy="2" stdDeviation="1.5" flood-color="#000" flood-opacity=".7"/></filter>
  </defs>
  <ellipse cx="128" cy="112" rx="124" ry="78" fill="url(#steelg)"/>
  <g filter="url(#steelsh)">
    <!-- side -->
    <path d="M200 58 L238 36 V144 L200 170 Z" fill="url(#steels)"/>
    <path d="M206 70 L232 55 M206 150 L232 134" stroke="#000" stroke-opacity=".35" stroke-width="4"/>
    <rect x="212" y="90" width="16" height="30" rx="3" transform="skewY(-30) translate(0 124)" fill="#000" fill-opacity=".35"/>
    <!-- lid -->
    <path d="M20 58 L200 58 L238 36 L60 36 Z" fill="url(#steelt)"/>
    <path d="M20 58 L200 58 L238 36" stroke="#fff" stroke-opacity=".35" stroke-width="1.3"/>
    <path d="M58 52 L210 52 M72 44 L226 44" stroke="#000" stroke-opacity=".18" stroke-width="3"/>
    <!-- front -->
    <rect x="20" y="58" width="180" height="112" rx="3" fill="url(#steelf)"/>
    <rect x="20" y="58" width="180" height="10" fill="#000" fill-opacity=".3"/>
    <rect x="22" y="152" width="176" height="14" fill="#000" fill-opacity=".22"/>
    <rect x="20" y="58" width="12" height="112" fill="#000" fill-opacity=".25"/>
    <rect x="188" y="58" width="12" height="112" fill="#000" fill-opacity=".3"/>
    <!-- panel with weapon -->
    <rect x="42" y="76" width="136" height="68" rx="4" fill="url(#steelp)" stroke="#e8eef6" stroke-opacity=".45" stroke-width="1.2"/>
    <path d="M46 80 h18 M46 80 v10 M174 140 h-18 M174 140 v-10" stroke="#e8eef6" stroke-opacity=".8" stroke-width="1.6"/>
    <g transform="translate(47 74) scale(.63)" filter="url(#steelws)">
    <path d="M16 58 H150 L188 54 V62 L150 66 H16 Z" fill="url(#m)"/>
    <path d="M40 66 H120 V76 H40 Z" fill="url(#d)"/>
    <path d="M78 76 L70 108 H84 L94 76 Z" fill="url(#d)"/>
    <path d="M100 76 Q104 96 118 104 L126 96 Q112 90 112 76 Z" fill="url(#m)"/>
    <path d="M16 58 L6 86 H30 L40 66 Z" fill="url(#d)"/>
    <rect x="70" y="46" width="44" height="10" rx="3" fill="url(#acc)"/>
    <path d="M20 61 H146" stroke="#fff" stroke-opacity=".45" stroke-width="2"/></g>
    <path d="M177.8 161.2 l12.9 3.5" stroke="#fff" stroke-opacity="0.10" stroke-width="1.0"/><path d="M186.8 151.7 l6.2 -1.2" stroke="#fff" stroke-opacity="0.11" stroke-width="1.4"/><path d="M96.4 133.8 l14.4 -4.4" stroke="#fff" stroke-opacity="0.14" stroke-width="1.3"/><path d="M167.1 114.6 l5.6 2.6" stroke="#fff" stroke-opacity="0.08" stroke-width="0.9"/><path d="M55.1 139.1 l9.0 -5.4" stroke="#fff" stroke-opacity="0.06" stroke-width="1.4"/><path d="M82.7 104.4 l15.1 -2.3" stroke="#fff" stroke-opacity="0.12" stroke-width="1.1"/><path d="M37.2 141.6 l7.5 -1.9" stroke="#fff" stroke-opacity="0.09" stroke-width="1.4"/><path d="M150.5 128.0 l7.8 -3.6" stroke="#fff" stroke-opacity="0.06" stroke-width="0.7"/><path d="M128.2 125.2 l16.4 7.5" stroke="#fff" stroke-opacity="0.06" stroke-width="0.9"/><path d="M46.3 122.3 l13.9 3.1" stroke="#fff" stroke-opacity="0.09" stroke-width="0.7"/><path d="M160.0 75.9 l7.3 0.3" stroke="#fff" stroke-opacity="0.11" stroke-width="1.2"/><path d="M118.0 103.1 l7.8 4.8" stroke="#fff" stroke-opacity="0.16" stroke-width="1.0"/><path d="M104.6 143.6 l13.0 -5.1" stroke="#fff" stroke-opacity="0.15" stroke-width="1.4"/><path d="M89.5 156.1 l5.6 -1.3" stroke="#fff" stroke-opacity="0.14" stroke-width="0.9"/><path d="M88.4 74.3 l14.0 -7.2" stroke="#fff" stroke-opacity="0.17" stroke-width="0.6"/><path d="M100.2 154.8 l11.9 -5.0" stroke="#fff" stroke-opacity="0.12" stroke-width="1.1"/><path d="M187.4 86.7 l14.4 -8.4" stroke="#fff" stroke-opacity="0.13" stroke-width="0.8"/><path d="M168.6 145.9 l10.5 4.2" stroke="#fff" stroke-opacity="0.10" stroke-width="0.9"/><path d="M143.4 82.7 l14.0 8.4" stroke="#fff" stroke-opacity="0.15" stroke-width="1.1"/><path d="M144.0 157.2 l16.9 -3.3" stroke="#fff" stroke-opacity="0.11" stroke-width="1.0"/><path d="M50.4 135.2 l14.8 6.9" stroke="#fff" stroke-opacity="0.09" stroke-width="0.7"/><path d="M86.9 120.6 l7.9 5.3" stroke="#fff" stroke-opacity="0.09" stroke-width="0.7"/><path d="M54.4 108.6 l11.6 6.8" stroke="#fff" stroke-opacity="0.10" stroke-width="1.0"/><path d="M186.3 152.3 l13.9 7.6" stroke="#fff" stroke-opacity="0.13" stroke-width="1.2"/><path d="M76.3 81.9 l15.9 0.3" stroke="#fff" stroke-opacity="0.14" stroke-width="0.7"/><path d="M119.5 156.1 l16.3 -3.2" stroke="#fff" stroke-opacity="0.13" stroke-width="1.5"/>
    <circle cx="28" cy="70" r="2.2" fill="url(#steelm)"/><circle cx="27.4" cy="69.4" r="0.8" fill="#fff" fill-opacity=".7"/><circle cx="192" cy="70" r="2.2" fill="url(#steelm)"/><circle cx="191.4" cy="69.4" r="0.8" fill="#fff" fill-opacity=".7"/><circle cx="28" cy="160" r="2.2" fill="url(#steelm)"/><circle cx="27.4" cy="159.4" r="0.8" fill="#fff" fill-opacity=".7"/><circle cx="192" cy="160" r="2.2" fill="url(#steelm)"/><circle cx="191.4" cy="159.4" r="0.8" fill="#fff" fill-opacity=".7"/><circle cx="110" cy="70" r="2.2" fill="url(#steelm)"/><circle cx="109.4" cy="69.4" r="0.8" fill="#fff" fill-opacity=".7"/><circle cx="110" cy="160" r="2.2" fill="url(#steelm)"/><circle cx="109.4" cy="159.4" r="0.8" fill="#fff" fill-opacity=".7"/>
    <!-- latches -->
    <rect x="44" y="50" width="20" height="26" rx="2.5" fill="url(#steelm)"/><rect x="49" y="66" width="10" height="6" rx="1" fill="#2e281c"/>
    <rect x="156" y="50" width="20" height="26" rx="2.5" fill="url(#steelm)"/><rect x="161" y="66" width="10" height="6" rx="1" fill="#2e281c"/>
    <!-- padlock -->
    <rect x="102" y="60" width="16" height="13" rx="2" fill="url(#steelm)"/><path d="M105 60 v-4 a5 5 0 0 1 10 0 v4" stroke="url(#steelm)" stroke-width="2.4" fill="none"/>
    <text x="110" y="162" opacity="1" text-anchor="middle" font-family="Arial Black, Arial, sans-serif" font-weight="900" font-size="9" letter-spacing="3" fill="#000" fill-opacity=".45">GRADERUP</text>
    <rect x="20" y="58" width="180" height="112" rx="3" stroke="#fff" stroke-opacity=".12"/>
  </g>
</svg>
