<svg xmlns="http://www.w3.org/2000/svg" viewBox="0 0 200 140" fill="none">
  <defs>
  <linearGradient id="m" x1="0" y1="0" x2="0" y2="1">
    <stop offset="0" stop-color="#E9EEF6"/><stop offset="1" stop-color="#8C97AB"/>
  </linearGradient>
  <linearGradient id="d" x1="0" y1="0" x2="0" y2="1">
    <stop offset="0" stop-color="#3A4457"/><stop offset="1" stop-color="#1B2130"/>
  </linearGradient>
    <linearGradient id="acc" x1="0" y1="0" x2="1" y2="1"><stop offset="0" stop-color="#9C86FF"/><stop offset="1" stop-color="#4FE3FF"/></linearGradient>
    <filter id="s" x="-20%" y="-20%" width="140%" height="160%"><feDropShadow dx="0" dy="6" stdDeviation="6" flood-color="#000" flood-opacity=".45"/></filter>
    
  </defs>
  <g filter="url(#s)">
    <path d="M16 58 H150 L188 54 V62 L150 66 H16 Z" fill="url(#m)"/>
    <path d="M40 66 H120 V76 H40 Z" fill="url(#d)"/>
    <path d="M78 76 L70 108 H84 L94 76 Z" fill="url(#d)"/>
    <path d="M100 76 Q104 96 118 104 L126 96 Q112 90 112 76 Z" fill="url(#m)"/>
    <path d="M16 58 L6 86 H30 L40 66 Z" fill="url(#d)"/>
    <rect x="70" y="46" width="44" height="10" rx="3" fill="url(#acc)"/>
    <path d="M20 61 H146" stroke="#fff" stroke-opacity=".45" stroke-width="2"/></g>
</svg>
