<svg xmlns="http://www.w3.org/2000/svg" viewBox="0 0 240 110" fill="none" preserveAspectRatio="none"><defs>
    <linearGradient id="ff" x1="0" y1="0" x2="0" y2="1"><stop offset="0" stop-color="#d9435d"/><stop offset=".5" stop-color="#d6334f"/><stop offset="1" stop-color="#851c2f"/></linearGradient>
    <linearGradient id="ft" x1="0" y1="0" x2="1" y2="1"><stop offset="0" stop-color="#e88d9d"/><stop offset=".6" stop-color="#e27084"/><stop offset="1" stop-color="#d6334f"/></linearGradient>
    <linearGradient id="fs" x1="0" y1="0" x2="0" y2="1"><stop offset="0" stop-color="#b42942"/><stop offset="1" stop-color="#4f0c1a"/></linearGradient>
    <linearGradient id="fb" x1="0" y1="0" x2="1" y2="0"><stop offset="0" stop-color="#2f0710"/><stop offset=".5" stop-color="#442028"/><stop offset="1" stop-color="#2f0710"/></linearGradient>
    <linearGradient id="fgl" x1="0" y1="0" x2="1" y2="1"><stop offset="0" stop-color="#fff" stop-opacity=".28"/><stop offset=".4" stop-color="#fff" stop-opacity="0"/></linearGradient>
    <linearGradient id="fmt" x1="0" y1="0" x2="0" y2="1"><stop offset="0" stop-color="#f2f4f7"/><stop offset=".5" stop-color="#aab0b9"/><stop offset="1" stop-color="#6b707a"/></linearGradient>
    <linearGradient id="fmd" x1="0" y1="0" x2="0" y2="1"><stop offset="0" stop-color="#9097a2"/><stop offset="1" stop-color="#4a4f58"/></linearGradient>
    <linearGradient id="m" x1="0" y1="0" x2="0" y2="1"><stop offset="0" stop-color="#f4f6fa"/><stop offset="1" stop-color="#9aa3b3"/></linearGradient>
    <linearGradient id="d" x1="0" y1="0" x2="0" y2="1"><stop offset="0" stop-color="#3a4457"/><stop offset="1" stop-color="#151a24"/></linearGradient>
    <linearGradient id="acc" x1="0" y1="0" x2="1" y2="1"><stop offset="0" stop-color="#ffc2cd"/><stop offset="1" stop-color="#eb7b8e"/></linearGradient>
    <filter id="fr" x="-10%" y="-10%" width="120%" height="120%"><feFlood flood-color="#ff2d55"/><feComposite in2="SourceAlpha" operator="in"/></filter>
    <filter id="fc" x="-10%" y="-10%" width="120%" height="120%"><feFlood flood-color="#19e3ff"/><feComposite in2="SourceAlpha" operator="in"/></filter>
    <clipPath id="fst"><rect x="58" y="60" width="124" height="58" rx="6"/></clipPath>
    <clipPath id="fs1"><rect x="0" y="70" width="240" height="6"/></clipPath>
    <clipPath id="fs2"><rect x="0" y="96" width="240" height="5"/></clipPath>
    <clipPath id="fct"><rect width="240" height="110"/></clipPath></defs>
  <rect width="240" height="110" fill="url(#ft)"/>
  <rect x="6" y="6" width="228" height="98" rx="6" stroke="#000" stroke-opacity=".16" stroke-width="2"/>
  <rect x="7.5" y="7.5" width="225" height="95" rx="5" stroke="#fff" stroke-opacity=".18"/>
  <g clip-path="url(#fct)"><g transform="rotate(-32 50 60)"><rect x="-40" y="52" width="200" height="14" fill="#ffcb6b"/><path d="M-40 66 l7 -14 h5 l-7 14 z" fill="#111"/><path d="M-29 66 l7 -14 h5 l-7 14 z" fill="#111"/><path d="M-18 66 l7 -14 h5 l-7 14 z" fill="#111"/><path d="M-7 66 l7 -14 h5 l-7 14 z" fill="#111"/><path d="M4 66 l7 -14 h5 l-7 14 z" fill="#111"/><path d="M15 66 l7 -14 h5 l-7 14 z" fill="#111"/><path d="M26 66 l7 -14 h5 l-7 14 z" fill="#111"/><path d="M37 66 l7 -14 h5 l-7 14 z" fill="#111"/><path d="M48 66 l7 -14 h5 l-7 14 z" fill="#111"/><path d="M59 66 l7 -14 h5 l-7 14 z" fill="#111"/><path d="M70 66 l7 -14 h5 l-7 14 z" fill="#111"/><path d="M81 66 l7 -14 h5 l-7 14 z" fill="#111"/><path d="M92 66 l7 -14 h5 l-7 14 z" fill="#111"/><path d="M103 66 l7 -14 h5 l-7 14 z" fill="#111"/><path d="M114 66 l7 -14 h5 l-7 14 z" fill="#111"/><path d="M125 66 l7 -14 h5 l-7 14 z" fill="#111"/><path d="M136 66 l7 -14 h5 l-7 14 z" fill="#111"/><path d="M147 66 l7 -14 h5 l-7 14 z" fill="#111"/><path d="M158 66 l7 -14 h5 l-7 14 z" fill="#111"/><path d="M169 66 l7 -14 h5 l-7 14 z" fill="#111"/></g></g>
  <rect x="84" y="46" width="12" height="18" rx="2.5" fill="#1a1c21"/><rect x="144" y="46" width="12" height="18" rx="2.5" fill="#1a1c21"/>
  <rect x="80" y="52" width="80" height="14" rx="7" fill="#000" fill-opacity=".35"/>
  <rect x="80" y="48" width="80" height="14" rx="7" fill="#17191d"/><path d="M86 51.5 h68" stroke="#fff" stroke-opacity=".22" stroke-width="1.4"/>
  <circle cx="14" cy="14" r="2.6" fill="url(#fmt)"/><circle cx="226" cy="14" r="2.6" fill="url(#fmt)"/><circle cx="14" cy="96" r="2.6" fill="url(#fmt)"/><circle cx="226" cy="96" r="2.6" fill="url(#fmt)"/>
  <text x="120" y="88" text-anchor="middle" font-family="Arial Black, Arial, sans-serif" font-weight="900" font-size="9" letter-spacing="4" fill="#000" fill-opacity=".22">GRADERUP</text>
  <text x="22" y="26" font-family="Arial, sans-serif" font-weight="700" font-size="6" fill="#000" fill-opacity=".35">RED-300</text>
  <path d="M156.5 67.2 l6.7 -5.3" stroke="#fff" stroke-opacity="0.07" stroke-width="1.1"/><path d="M130.0 77.2 l4.9 0.2" stroke="#fff" stroke-opacity="0.14" stroke-width="0.7"/><path d="M85.4 44.6 l5.9 3.4" stroke="#fff" stroke-opacity="0.07" stroke-width="0.9"/><path d="M187.3 37.4 l3.2 -1.5" stroke="#fff" stroke-opacity="0.14" stroke-width="1.2"/><path d="M182.7 98.3 l4.8 0.3" stroke="#fff" stroke-opacity="0.09" stroke-width="0.9"/><path d="M206.8 72.5 l14.6 3.0" stroke="#fff" stroke-opacity="0.10" stroke-width="0.8"/><path d="M229.7 7.9 l11.7 0.4" stroke="#fff" stroke-opacity="0.14" stroke-width="1.2"/><path d="M48.4 34.1 l3.5 2.7" stroke="#fff" stroke-opacity="0.16" stroke-width="1.2"/><path d="M99.0 42.4 l8.6 3.1" stroke="#fff" stroke-opacity="0.14" stroke-width="0.7"/><path d="M26.8 98.6 l10.5 4.1" stroke="#fff" stroke-opacity="0.07" stroke-width="1.2"/><path d="M70.1 69.7 l9.7 2.3" stroke="#fff" stroke-opacity="0.11" stroke-width="0.6"/><path d="M82.5 88.2 l11.6 -4.7" stroke="#fff" stroke-opacity="0.12" stroke-width="1.1"/><path d="M168.6 65.0 l3.7 -1.3" stroke="#fff" stroke-opacity="0.08" stroke-width="0.6"/><path d="M136.7 88.7 l11.6 1.5" stroke="#fff" stroke-opacity="0.12" stroke-width="0.7"/><path d="M145.1 61.7 l12.5 6.2" stroke="#fff" stroke-opacity="0.15" stroke-width="0.5"/><path d="M111.6 78.4 l4.0 -1.5" stroke="#fff" stroke-opacity="0.11" stroke-width="1.3"/><path d="M91.1 16.0 l6.5 3.7" stroke="#fff" stroke-opacity="0.15" stroke-width="0.9"/><path d="M46.4 101.4 l9.3 -6.1" stroke="#fff" stroke-opacity="0.06" stroke-width="1.0"/>
  <rect width="240" height="110" fill="url(#fgl)"/>
  <rect x=".5" y=".5" width="239" height="109" stroke="#fff" stroke-opacity=".3"/></svg>
