<svg xmlns="http://www.w3.org/2000/svg" viewBox="0 0 240 140" fill="none" preserveAspectRatio="none"><defs>
    <linearGradient id="ff" x1="0" y1="0" x2="0" y2="1"><stop offset="0" stop-color="#94673c"/><stop offset=".5" stop-color="#8b5a2b"/><stop offset="1" stop-color="#57371b"/></linearGradient>
    <linearGradient id="ft" x1="0" y1="0" x2="1" y2="1"><stop offset="0" stop-color="#bea389"/><stop offset=".6" stop-color="#ae8c6b"/><stop offset="1" stop-color="#8b5a2b"/></linearGradient>
    <linearGradient id="fs" x1="0" y1="0" x2="0" y2="1"><stop offset="0" stop-color="#764c24"/><stop offset="1" stop-color="#352010"/></linearGradient>
    <linearGradient id="fb" x1="0" y1="0" x2="1" y2="0"><stop offset="0" stop-color="#20130a"/><stop offset=".5" stop-color="#362b23"/><stop offset="1" stop-color="#20130a"/></linearGradient>
    <linearGradient id="fgl" x1="0" y1="0" x2="1" y2="1"><stop offset="0" stop-color="#fff" stop-opacity=".28"/><stop offset=".4" stop-color="#fff" stop-opacity="0"/></linearGradient>
    <linearGradient id="fmt" x1="0" y1="0" x2="0" y2="1"><stop offset="0" stop-color="#f2f4f7"/><stop offset=".5" stop-color="#aab0b9"/><stop offset="1" stop-color="#6b707a"/></linearGradient>
    <linearGradient id="fmd" x1="0" y1="0" x2="0" y2="1"><stop offset="0" stop-color="#9097a2"/><stop offset="1" stop-color="#4a4f58"/></linearGradient>
    <linearGradient id="m" x1="0" y1="0" x2="0" y2="1"><stop offset="0" stop-color="#f4f6fa"/><stop offset="1" stop-color="#9aa3b3"/></linearGradient>
    <linearGradient id="d" x1="0" y1="0" x2="0" y2="1"><stop offset="0" stop-color="#3a4457"/><stop offset="1" stop-color="#151a24"/></linearGradient>
    <linearGradient id="acc" x1="0" y1="0" x2="1" y2="1"><stop offset="0" stop-color="#ffd27a"/><stop offset="1" stop-color="#c59653"/></linearGradient>
    <filter id="fr" x="-10%" y="-10%" width="120%" height="120%"><feFlood flood-color="#ff2d55"/><feComposite in2="SourceAlpha" operator="in"/></filter>
    <filter id="fc" x="-10%" y="-10%" width="120%" height="120%"><feFlood flood-color="#19e3ff"/><feComposite in2="SourceAlpha" operator="in"/></filter>
    <clipPath id="fst"><rect x="58" y="60" width="124" height="58" rx="6"/></clipPath>
    <clipPath id="fs1"><rect x="0" y="70" width="240" height="6"/></clipPath>
    <clipPath id="fs2"><rect x="0" y="96" width="240" height="5"/></clipPath>
    <clipPath id="fct"><rect width="240" height="110"/></clipPath></defs>
  <rect width="240" height="140" fill="url(#ff)"/>
  <rect width="240" height="46" fill="#fff" fill-opacity=".06"/>
  <path d="M20 16 H220 M20 38 H220" stroke="#000" stroke-opacity=".12" stroke-width="2"/><path d="M20 17.5 H220 M20 39.5 H220" stroke="#fff" stroke-opacity=".07"/>
  <rect y="45" width="240" height="6" fill="#000" fill-opacity=".45"/><path d="M0 51.6 H240" stroke="#fff" stroke-opacity=".18"/>
  <path d="M20 126 H220" stroke="#000" stroke-opacity=".28" stroke-width="2"/><path d="M20 127.6 H220" stroke="#fff" stroke-opacity=".08"/>
  <rect width="16" height="140" fill="url(#fb)"/><path d="M4 9 h10" stroke="#000" stroke-opacity=".3" stroke-width="2"/><path d="M4 10.6 h10" stroke="#fff" stroke-opacity=".07"/><path d="M4 17 h10" stroke="#000" stroke-opacity=".3" stroke-width="2"/><path d="M4 18.6 h10" stroke="#fff" stroke-opacity=".07"/><path d="M4 25 h10" stroke="#000" stroke-opacity=".3" stroke-width="2"/><path d="M4 26.6 h10" stroke="#fff" stroke-opacity=".07"/><path d="M4 33 h10" stroke="#000" stroke-opacity=".3" stroke-width="2"/><path d="M4 34.6 h10" stroke="#fff" stroke-opacity=".07"/><path d="M4 41 h10" stroke="#000" stroke-opacity=".3" stroke-width="2"/><path d="M4 42.6 h10" stroke="#fff" stroke-opacity=".07"/><path d="M4 49 h10" stroke="#000" stroke-opacity=".3" stroke-width="2"/><path d="M4 50.6 h10" stroke="#fff" stroke-opacity=".07"/><path d="M4 57 h10" stroke="#000" stroke-opacity=".3" stroke-width="2"/><path d="M4 58.6 h10" stroke="#fff" stroke-opacity=".07"/><path d="M4 65 h10" stroke="#000" stroke-opacity=".3" stroke-width="2"/><path d="M4 66.6 h10" stroke="#fff" stroke-opacity=".07"/><path d="M4 73 h10" stroke="#000" stroke-opacity=".3" stroke-width="2"/><path d="M4 74.6 h10" stroke="#fff" stroke-opacity=".07"/><path d="M4 81 h10" stroke="#000" stroke-opacity=".3" stroke-width="2"/><path d="M4 82.6 h10" stroke="#fff" stroke-opacity=".07"/><path d="M4 89 h10" stroke="#000" stroke-opacity=".3" stroke-width="2"/><path d="M4 90.6 h10" stroke="#fff" stroke-opacity=".07"/><path d="M4 97 h10" stroke="#000" stroke-opacity=".3" stroke-width="2"/><path d="M4 98.6 h10" stroke="#fff" stroke-opacity=".07"/><path d="M4 105 h10" stroke="#000" stroke-opacity=".3" stroke-width="2"/><path d="M4 106.6 h10" stroke="#fff" stroke-opacity=".07"/><path d="M4 113 h10" stroke="#000" stroke-opacity=".3" stroke-width="2"/><path d="M4 114.6 h10" stroke="#fff" stroke-opacity=".07"/><path d="M4 121 h10" stroke="#000" stroke-opacity=".3" stroke-width="2"/><path d="M4 122.6 h10" stroke="#fff" stroke-opacity=".07"/><path d="M4 129 h10" stroke="#000" stroke-opacity=".3" stroke-width="2"/><path d="M4 130.6 h10" stroke="#fff" stroke-opacity=".07"/>
  <rect x="224" width="16" height="140" fill="url(#fb)"/><path d="M227 9 h10" stroke="#000" stroke-opacity=".3" stroke-width="2"/><path d="M227 10.6 h10" stroke="#fff" stroke-opacity=".07"/><path d="M227 17 h10" stroke="#000" stroke-opacity=".3" stroke-width="2"/><path d="M227 18.6 h10" stroke="#fff" stroke-opacity=".07"/><path d="M227 25 h10" stroke="#000" stroke-opacity=".3" stroke-width="2"/><path d="M227 26.6 h10" stroke="#fff" stroke-opacity=".07"/><path d="M227 33 h10" stroke="#000" stroke-opacity=".3" stroke-width="2"/><path d="M227 34.6 h10" stroke="#fff" stroke-opacity=".07"/><path d="M227 41 h10" stroke="#000" stroke-opacity=".3" stroke-width="2"/><path d="M227 42.6 h10" stroke="#fff" stroke-opacity=".07"/><path d="M227 49 h10" stroke="#000" stroke-opacity=".3" stroke-width="2"/><path d="M227 50.6 h10" stroke="#fff" stroke-opacity=".07"/><path d="M227 57 h10" stroke="#000" stroke-opacity=".3" stroke-width="2"/><path d="M227 58.6 h10" stroke="#fff" stroke-opacity=".07"/><path d="M227 65 h10" stroke="#000" stroke-opacity=".3" stroke-width="2"/><path d="M227 66.6 h10" stroke="#fff" stroke-opacity=".07"/><path d="M227 73 h10" stroke="#000" stroke-opacity=".3" stroke-width="2"/><path d="M227 74.6 h10" stroke="#fff" stroke-opacity=".07"/><path d="M227 81 h10" stroke="#000" stroke-opacity=".3" stroke-width="2"/><path d="M227 82.6 h10" stroke="#fff" stroke-opacity=".07"/><path d="M227 89 h10" stroke="#000" stroke-opacity=".3" stroke-width="2"/><path d="M227 90.6 h10" stroke="#fff" stroke-opacity=".07"/><path d="M227 97 h10" stroke="#000" stroke-opacity=".3" stroke-width="2"/><path d="M227 98.6 h10" stroke="#fff" stroke-opacity=".07"/><path d="M227 105 h10" stroke="#000" stroke-opacity=".3" stroke-width="2"/><path d="M227 106.6 h10" stroke="#fff" stroke-opacity=".07"/><path d="M227 113 h10" stroke="#000" stroke-opacity=".3" stroke-width="2"/><path d="M227 114.6 h10" stroke="#fff" stroke-opacity=".07"/><path d="M227 121 h10" stroke="#000" stroke-opacity=".3" stroke-width="2"/><path d="M227 122.6 h10" stroke="#fff" stroke-opacity=".07"/><path d="M227 129 h10" stroke="#000" stroke-opacity=".3" stroke-width="2"/><path d="M227 130.6 h10" stroke="#fff" stroke-opacity=".07"/>
  <g transform="rotate(-2.5 180 22)">
    <rect x="152" y="8" width="60" height="28" rx="1.5" fill="#000" fill-opacity=".25" transform="translate(1 1.5)"/>
    <rect x="152" y="8" width="60" height="28" rx="1.5" fill="#eeece4"/>
    <text x="156" y="15.5" font-family="Arial, sans-serif" font-weight="700" font-size="5.2" fill="#23262c">GRADERUP SUPPLY</text>
    <path d="M156 19 h36" stroke="#23262c" stroke-opacity=".55" stroke-width="1.2"/>
    <rect x="157" y="24" width="1.5" height="8" fill="#23262c"/><rect x="159.1" y="24" width="0.9" height="8" fill="#23262c"/><rect x="161.2" y="24" width="0.9" height="8" fill="#23262c"/><rect x="163.3" y="24" width="0.9" height="8" fill="#23262c"/><rect x="165.4" y="24" width="1.5" height="8" fill="#23262c"/><rect x="167.5" y="24" width="1.5" height="8" fill="#23262c"/><rect x="169.6" y="24" width="0.9" height="8" fill="#23262c"/><rect x="171.7" y="24" width="0.9" height="8" fill="#23262c"/><rect x="173.8" y="24" width="0.9" height="8" fill="#23262c"/><rect x="175.9" y="24" width="1.5" height="8" fill="#23262c"/><rect x="178" y="24" width="0.9" height="8" fill="#23262c"/><rect x="180.1" y="24" width="1.5" height="8" fill="#23262c"/><rect x="182.2" y="24" width="1.5" height="8" fill="#23262c"/><rect x="184.3" y="24" width="1.5" height="8" fill="#23262c"/><rect x="186.4" y="24" width="0.9" height="8" fill="#23262c"/><rect x="188.5" y="24" width="0.9" height="8" fill="#23262c"/>
    <text x="191" y="32" font-family="Arial, sans-serif" font-weight="700" font-size="4.8" fill="#a6894f">RIC-184</text>
  </g>
  <circle cx="44" cy="24" r="11.5" fill="#000" fill-opacity=".3" transform="translate(1 1.5)"/>
  <circle cx="44" cy="24" r="11.5" fill="#ffd27a"/><circle cx="44" cy="24" r="8.7" fill="#101318"/>
  <path d="M44 18 L45.8 22.2 L50.3 22.5 L46.9 25.3 L48 29.6 L44 27.2 L40 29.6 L41.1 25.3 L37.7 22.5 L42.2 22.2 Z" fill="#ffd27a"/>
  <rect x="59.2" y="62" width="124" height="58" rx="6" fill="#000" fill-opacity=".3"/>
  <rect x="58" y="60" width="124" height="58" rx="6" fill="#0d1015"/>
  <g clip-path="url(#fst)">
    <rect x="58" y="60" width="124" height="58" fill="#ffd27a" fill-opacity=".1"/>
    <path d="M58 64 H182" stroke="#fff" stroke-opacity=".035"/><path d="M58 70 H182" stroke="#fff" stroke-opacity=".035"/><path d="M58 76 H182" stroke="#fff" stroke-opacity=".035"/><path d="M58 82 H182" stroke="#fff" stroke-opacity=".035"/><path d="M58 88 H182" stroke="#fff" stroke-opacity=".035"/><path d="M58 94 H182" stroke="#fff" stroke-opacity=".035"/><path d="M58 100 H182" stroke="#fff" stroke-opacity=".035"/><path d="M58 106 H182" stroke="#fff" stroke-opacity=".035"/><path d="M58 112 H182" stroke="#fff" stroke-opacity=".035"/><path d="M58 118 H182" stroke="#fff" stroke-opacity=".035"/>
    <g transform="translate(-3 0)" opacity=".85"><g transform="translate(60 50) scale(.6)" filter="url(#fr)">
    <path d="M10 58 H176 Q184 58 184 64 H10 Z" fill="url(#m)"/>
    <path d="M60 64 H176 V72 H60 Z" fill="url(#d)"/>
    <rect x="96" y="72" width="44" height="12" rx="4" fill="url(#acc)"/>
    <path d="M10 58 L-2 90 H30 L60 72 V64 Z" fill="url(#d)"/>
    <path d="M14 61 H170" stroke="#fff" stroke-opacity=".45" stroke-width="2"/></g></g>
    <g transform="translate(3 0)" opacity=".85"><g transform="translate(60 50) scale(.6)" filter="url(#fc)">
    <path d="M10 58 H176 Q184 58 184 64 H10 Z" fill="url(#m)"/>
    <path d="M60 64 H176 V72 H60 Z" fill="url(#d)"/>
    <rect x="96" y="72" width="44" height="12" rx="4" fill="url(#acc)"/>
    <path d="M10 58 L-2 90 H30 L60 72 V64 Z" fill="url(#d)"/>
    <path d="M14 61 H170" stroke="#fff" stroke-opacity=".45" stroke-width="2"/></g></g>
    <g transform="translate(60 50) scale(.6)">
    <path d="M10 58 H176 Q184 58 184 64 H10 Z" fill="url(#m)"/>
    <path d="M60 64 H176 V72 H60 Z" fill="url(#d)"/>
    <rect x="96" y="72" width="44" height="12" rx="4" fill="url(#acc)"/>
    <path d="M10 58 L-2 90 H30 L60 72 V64 Z" fill="url(#d)"/>
    <path d="M14 61 H170" stroke="#fff" stroke-opacity=".45" stroke-width="2"/></g>
    <g clip-path="url(#fs1)" transform="translate(7 0)"><g transform="translate(60 50) scale(.6)">
    <path d="M10 58 H176 Q184 58 184 64 H10 Z" fill="url(#m)"/>
    <path d="M60 64 H176 V72 H60 Z" fill="url(#d)"/>
    <rect x="96" y="72" width="44" height="12" rx="4" fill="url(#acc)"/>
    <path d="M10 58 L-2 90 H30 L60 72 V64 Z" fill="url(#d)"/>
    <path d="M14 61 H170" stroke="#fff" stroke-opacity=".45" stroke-width="2"/></g></g>
    <g clip-path="url(#fs2)" transform="translate(-6 0)"><g transform="translate(60 50) scale(.6)">
    <path d="M10 58 H176 Q184 58 184 64 H10 Z" fill="url(#m)"/>
    <path d="M60 64 H176 V72 H60 Z" fill="url(#d)"/>
    <rect x="96" y="72" width="44" height="12" rx="4" fill="url(#acc)"/>
    <path d="M10 58 L-2 90 H30 L60 72 V64 Z" fill="url(#d)"/>
    <path d="M14 61 H170" stroke="#fff" stroke-opacity=".45" stroke-width="2"/></g></g>
  </g>
  <rect x="58" y="60" width="124" height="58" rx="6" stroke="#ffd27a" stroke-opacity=".85" stroke-width="1.6"/>
  <path d="M63 65 h10 M63 65 v7 M177 113 h-10 M177 113 v-7" stroke="#ffd27a" stroke-width="1.6"/>
  
    <rect x="23.5" y="38.5" width="24" height="36" rx="3.5" fill="#000" fill-opacity=".35"/>
    <rect x="22" y="36" width="24" height="36" rx="3.5" fill="url(#fmt)"/>
    <rect x="26" y="45" width="16" height="22" rx="2.5" fill="url(#fmd)"/>
    <path d="M26 50 h16" stroke="#000" stroke-opacity=".35" stroke-width="1.2"/>
    <rect x="29" y="38" width="10" height="5" rx="1.5" fill="#1b1d22"/>
    <path d="M23.5 37.5 h21" stroke="#fff" stroke-opacity=".6"/>
    <rect x="195.5" y="38.5" width="24" height="36" rx="3.5" fill="#000" fill-opacity=".35"/>
    <rect x="194" y="36" width="24" height="36" rx="3.5" fill="url(#fmt)"/>
    <rect x="198" y="45" width="16" height="22" rx="2.5" fill="url(#fmd)"/>
    <path d="M198 50 h16" stroke="#000" stroke-opacity=".35" stroke-width="1.2"/>
    <rect x="201" y="38" width="10" height="5" rx="1.5" fill="#1b1d22"/>
    <path d="M195.5 37.5 h21" stroke="#fff" stroke-opacity=".6"/>
  <rect x="108" y="38" width="24" height="19" rx="3" fill="url(#fmt)"/>
  <circle cx="120" cy="45.5" r="2.6" fill="#1b1d22"/><rect x="119" y="46.5" width="2" height="6" rx="1" fill="#1b1d22"/>
  <text x="120.6" y="136.6" text-anchor="middle" font-family="Arial Black, Arial, sans-serif" font-weight="900" font-size="7.5" letter-spacing="3" fill="#fff" fill-opacity=".14">GRADERUP</text>
  <text x="120" y="136" text-anchor="middle" font-family="Arial Black, Arial, sans-serif" font-weight="900" font-size="7.5" letter-spacing="3" fill="#000" fill-opacity=".42">GRADERUP</text>
  <path d="M189.9 83.8 l10.8 3.2" stroke="#fff" stroke-opacity="0.08" stroke-width="0.7"/><path d="M133.9 69.8 l12.4 -1.8" stroke="#fff" stroke-opacity="0.07" stroke-width="0.6"/><path d="M43.2 99.7 l10.7 4.3" stroke="#fff" stroke-opacity="0.09" stroke-width="0.9"/><path d="M206.1 118.6 l10.0 2.5" stroke="#fff" stroke-opacity="0.12" stroke-width="0.5"/><path d="M137.8 87.1 l12.3 1.9" stroke="#fff" stroke-opacity="0.14" stroke-width="0.5"/><path d="M174.8 14.8 l10.5 7.6" stroke="#fff" stroke-opacity="0.14" stroke-width="0.6"/><path d="M164.1 78.4 l8.0 -2.3" stroke="#fff" stroke-opacity="0.12" stroke-width="1.2"/><path d="M93.9 106.4 l8.7 5.8" stroke="#fff" stroke-opacity="0.16" stroke-width="1.1"/><path d="M108.4 130.3 l8.5 -2.0" stroke="#fff" stroke-opacity="0.17" stroke-width="0.7"/><path d="M151.9 16.0 l7.5 -3.0" stroke="#fff" stroke-opacity="0.14" stroke-width="0.9"/><path d="M67.2 12.7 l9.6 -4.7" stroke="#fff" stroke-opacity="0.06" stroke-width="0.5"/><path d="M148.1 123.3 l10.5 5.6" stroke="#fff" stroke-opacity="0.16" stroke-width="1.1"/><path d="M144.8 108.6 l4.5 -2.1" stroke="#fff" stroke-opacity="0.07" stroke-width="1.0"/><path d="M168.7 64.8 l7.3 1.4" stroke="#fff" stroke-opacity="0.08" stroke-width="0.8"/><path d="M121.2 53.6 l3.5 2.8" stroke="#fff" stroke-opacity="0.05" stroke-width="1.1"/><path d="M35.7 101.0 l11.4 -7.6" stroke="#fff" stroke-opacity="0.08" stroke-width="1.1"/><path d="M195.5 16.9 l10.5 -6.7" stroke="#fff" stroke-opacity="0.13" stroke-width="0.9"/><path d="M174.9 102.2 l3.3 -0.4" stroke="#fff" stroke-opacity="0.08" stroke-width="1.3"/><path d="M232.3 20.5 l11.4 -3.0" stroke="#fff" stroke-opacity="0.08" stroke-width="0.7"/><path d="M174.1 117.1 l7.2 4.7" stroke="#fff" stroke-opacity="0.12" stroke-width="1.0"/><path d="M89.9 86.5 l9.7 1.0" stroke="#fff" stroke-opacity="0.10" stroke-width="1.2"/><path d="M27.2 28.2 l10.2 1.0" stroke="#fff" stroke-opacity="0.15" stroke-width="1.1"/><path d="M115.3 33.8 l11.4 -3.7" stroke="#fff" stroke-opacity="0.07" stroke-width="0.9"/><path d="M199.9 35.3 l9.0 -1.0" stroke="#fff" stroke-opacity="0.15" stroke-width="0.9"/><path d="M218.5 123.5 l9.8 -1.6" stroke="#fff" stroke-opacity="0.11" stroke-width="1.0"/><path d="M212.7 94.7 l3.4 -1.3" stroke="#fff" stroke-opacity="0.05" stroke-width="1.2"/><path d="M150.8 52.7 l12.2 3.0" stroke="#fff" stroke-opacity="0.17" stroke-width="0.8"/><path d="M121.6 73.5 l7.5 -5.6" stroke="#fff" stroke-opacity="0.07" stroke-width="0.5"/><path d="M94.6 14.1 l8.2 -2.7" stroke="#fff" stroke-opacity="0.10" stroke-width="0.8"/><path d="M29.1 86.5 l8.9 -3.3" stroke="#fff" stroke-opacity="0.07" stroke-width="0.9"/>
  <rect width="240" height="140" fill="url(#fgl)"/>
  <rect x=".5" y=".5" width="239" height="139" stroke="#fff" stroke-opacity=".22"/>
  <path d="M0 .8 H240" stroke="#fff" stroke-opacity=".5" stroke-width="1.6"/></svg>
