<svg xmlns="http://www.w3.org/2000/svg" viewBox="0 0 110 140" fill="none" preserveAspectRatio="none"><defs>
    <linearGradient id="ff" x1="0" y1="0" x2="0" y2="1"><stop offset="0" stop-color="#4a4e58"/><stop offset=".5" stop-color="#3a3f4a"/><stop offset="1" stop-color="#1f2229"/></linearGradient>
    <linearGradient id="ft" x1="0" y1="0" x2="1" y2="1"><stop offset="0" stop-color="#919499"/><stop offset=".6" stop-color="#757980"/><stop offset="1" stop-color="#3a3f4a"/></linearGradient>
    <linearGradient id="fs" x1="0" y1="0" x2="0" y2="1"><stop offset="0" stop-color="#2f333c"/><stop offset="1" stop-color="#0d0f13"/></linearGradient>
    <linearGradient id="fb" x1="0" y1="0" x2="1" y2="0"><stop offset="0" stop-color="#08090b"/><stop offset=".5" stop-color="#212223"/><stop offset="1" stop-color="#08090b"/></linearGradient>
    <linearGradient id="fgl" x1="0" y1="0" x2="1" y2="1"><stop offset="0" stop-color="#fff" stop-opacity=".28"/><stop offset=".4" stop-color="#fff" stop-opacity="0"/></linearGradient>
    <linearGradient id="fmt" x1="0" y1="0" x2="0" y2="1"><stop offset="0" stop-color="#f2f4f7"/><stop offset=".5" stop-color="#aab0b9"/><stop offset="1" stop-color="#6b707a"/></linearGradient>
    <linearGradient id="fmd" x1="0" y1="0" x2="0" y2="1"><stop offset="0" stop-color="#9097a2"/><stop offset="1" stop-color="#4a4f58"/></linearGradient>
    <linearGradient id="m" x1="0" y1="0" x2="0" y2="1"><stop offset="0" stop-color="#f4f6fa"/><stop offset="1" stop-color="#9aa3b3"/></linearGradient>
    <linearGradient id="d" x1="0" y1="0" x2="0" y2="1"><stop offset="0" stop-color="#3a4457"/><stop offset="1" stop-color="#151a24"/></linearGradient>
    <linearGradient id="acc" x1="0" y1="0" x2="1" y2="1"><stop offset="0" stop-color="#e0e6f0"/><stop offset="1" stop-color="#8d939d"/></linearGradient>
    <filter id="fr" x="-10%" y="-10%" width="120%" height="120%"><feFlood flood-color="#ff2d55"/><feComposite in2="SourceAlpha" operator="in"/></filter>
    <filter id="fc" x="-10%" y="-10%" width="120%" height="120%"><feFlood flood-color="#19e3ff"/><feComposite in2="SourceAlpha" operator="in"/></filter>
    <clipPath id="fst"><rect x="58" y="60" width="124" height="58" rx="6"/></clipPath>
    <clipPath id="fs1"><rect x="0" y="70" width="240" height="6"/></clipPath>
    <clipPath id="fs2"><rect x="0" y="96" width="240" height="5"/></clipPath>
    <clipPath id="fct"><rect width="240" height="110"/></clipPath></defs>
  <rect width="110" height="140" fill="url(#fs)"/>
  <rect y="45" width="110" height="6" fill="#000" fill-opacity=".45"/><path d="M0 51.6 H110" stroke="#fff" stroke-opacity=".14"/>
  <rect width="14" height="140" fill="url(#fb)"/><path d="M3 9 h10" stroke="#000" stroke-opacity=".3" stroke-width="2"/><path d="M3 10.6 h10" stroke="#fff" stroke-opacity=".07"/><path d="M3 17 h10" stroke="#000" stroke-opacity=".3" stroke-width="2"/><path d="M3 18.6 h10" stroke="#fff" stroke-opacity=".07"/><path d="M3 25 h10" stroke="#000" stroke-opacity=".3" stroke-width="2"/><path d="M3 26.6 h10" stroke="#fff" stroke-opacity=".07"/><path d="M3 33 h10" stroke="#000" stroke-opacity=".3" stroke-width="2"/><path d="M3 34.6 h10" stroke="#fff" stroke-opacity=".07"/><path d="M3 41 h10" stroke="#000" stroke-opacity=".3" stroke-width="2"/><path d="M3 42.6 h10" stroke="#fff" stroke-opacity=".07"/><path d="M3 49 h10" stroke="#000" stroke-opacity=".3" stroke-width="2"/><path d="M3 50.6 h10" stroke="#fff" stroke-opacity=".07"/><path d="M3 57 h10" stroke="#000" stroke-opacity=".3" stroke-width="2"/><path d="M3 58.6 h10" stroke="#fff" stroke-opacity=".07"/><path d="M3 65 h10" stroke="#000" stroke-opacity=".3" stroke-width="2"/><path d="M3 66.6 h10" stroke="#fff" stroke-opacity=".07"/><path d="M3 73 h10" stroke="#000" stroke-opacity=".3" stroke-width="2"/><path d="M3 74.6 h10" stroke="#fff" stroke-opacity=".07"/><path d="M3 81 h10" stroke="#000" stroke-opacity=".3" stroke-width="2"/><path d="M3 82.6 h10" stroke="#fff" stroke-opacity=".07"/><path d="M3 89 h10" stroke="#000" stroke-opacity=".3" stroke-width="2"/><path d="M3 90.6 h10" stroke="#fff" stroke-opacity=".07"/><path d="M3 97 h10" stroke="#000" stroke-opacity=".3" stroke-width="2"/><path d="M3 98.6 h10" stroke="#fff" stroke-opacity=".07"/><path d="M3 105 h10" stroke="#000" stroke-opacity=".3" stroke-width="2"/><path d="M3 106.6 h10" stroke="#fff" stroke-opacity=".07"/><path d="M3 113 h10" stroke="#000" stroke-opacity=".3" stroke-width="2"/><path d="M3 114.6 h10" stroke="#fff" stroke-opacity=".07"/><path d="M3 121 h10" stroke="#000" stroke-opacity=".3" stroke-width="2"/><path d="M3 122.6 h10" stroke="#fff" stroke-opacity=".07"/><path d="M3 129 h10" stroke="#000" stroke-opacity=".3" stroke-width="2"/><path d="M3 130.6 h10" stroke="#fff" stroke-opacity=".07"/>
  <rect x="96" width="14" height="140" fill="url(#fb)"/><path d="M99 9 h10" stroke="#000" stroke-opacity=".3" stroke-width="2"/><path d="M99 10.6 h10" stroke="#fff" stroke-opacity=".07"/><path d="M99 17 h10" stroke="#000" stroke-opacity=".3" stroke-width="2"/><path d="M99 18.6 h10" stroke="#fff" stroke-opacity=".07"/><path d="M99 25 h10" stroke="#000" stroke-opacity=".3" stroke-width="2"/><path d="M99 26.6 h10" stroke="#fff" stroke-opacity=".07"/><path d="M99 33 h10" stroke="#000" stroke-opacity=".3" stroke-width="2"/><path d="M99 34.6 h10" stroke="#fff" stroke-opacity=".07"/><path d="M99 41 h10" stroke="#000" stroke-opacity=".3" stroke-width="2"/><path d="M99 42.6 h10" stroke="#fff" stroke-opacity=".07"/><path d="M99 49 h10" stroke="#000" stroke-opacity=".3" stroke-width="2"/><path d="M99 50.6 h10" stroke="#fff" stroke-opacity=".07"/><path d="M99 57 h10" stroke="#000" stroke-opacity=".3" stroke-width="2"/><path d="M99 58.6 h10" stroke="#fff" stroke-opacity=".07"/><path d="M99 65 h10" stroke="#000" stroke-opacity=".3" stroke-width="2"/><path d="M99 66.6 h10" stroke="#fff" stroke-opacity=".07"/><path d="M99 73 h10" stroke="#000" stroke-opacity=".3" stroke-width="2"/><path d="M99 74.6 h10" stroke="#fff" stroke-opacity=".07"/><path d="M99 81 h10" stroke="#000" stroke-opacity=".3" stroke-width="2"/><path d="M99 82.6 h10" stroke="#fff" stroke-opacity=".07"/><path d="M99 89 h10" stroke="#000" stroke-opacity=".3" stroke-width="2"/><path d="M99 90.6 h10" stroke="#fff" stroke-opacity=".07"/><path d="M99 97 h10" stroke="#000" stroke-opacity=".3" stroke-width="2"/><path d="M99 98.6 h10" stroke="#fff" stroke-opacity=".07"/><path d="M99 105 h10" stroke="#000" stroke-opacity=".3" stroke-width="2"/><path d="M99 106.6 h10" stroke="#fff" stroke-opacity=".07"/><path d="M99 113 h10" stroke="#000" stroke-opacity=".3" stroke-width="2"/><path d="M99 114.6 h10" stroke="#fff" stroke-opacity=".07"/><path d="M99 121 h10" stroke="#000" stroke-opacity=".3" stroke-width="2"/><path d="M99 122.6 h10" stroke="#fff" stroke-opacity=".07"/><path d="M99 129 h10" stroke="#000" stroke-opacity=".3" stroke-width="2"/><path d="M99 130.6 h10" stroke="#fff" stroke-opacity=".07"/>
  <rect x="30" y="72" width="10" height="16" rx="2" fill="#15171b"/><rect x="70" y="72" width="10" height="16" rx="2" fill="#15171b"/>
  <rect x="28" y="84" width="54" height="11" rx="5.5" fill="#000" fill-opacity=".35"/>
  <rect x="28" y="80" width="54" height="11" rx="5.5" fill="#17191d"/><path d="M33 83 h44" stroke="#fff" stroke-opacity=".2"/>
  <path d="M55 14 L66 33 H44 Z" fill="#f1db7a" stroke="#111" stroke-width="1.4" stroke-linejoin="round"/>
  <path d="M55 20 v7" stroke="#111" stroke-width="2.2" stroke-linecap="round"/><circle cx="55" cy="30" r="1.2" fill="#111"/>
  <path d="M56.0 110.0 l9.2 -2.2" stroke="#fff" stroke-opacity="0.13" stroke-width="0.8"/><path d="M18.6 69.1 l9.3 2.8" stroke="#fff" stroke-opacity="0.17" stroke-width="1.2"/><path d="M35.0 127.5 l10.4 3.0" stroke="#fff" stroke-opacity="0.10" stroke-width="0.5"/><path d="M83.1 107.4 l6.7 -3.4" stroke="#fff" stroke-opacity="0.10" stroke-width="1.1"/><path d="M28.2 41.9 l11.0 -3.8" stroke="#fff" stroke-opacity="0.10" stroke-width="1.3"/><path d="M19.6 79.3 l6.5 -2.5" stroke="#fff" stroke-opacity="0.12" stroke-width="0.9"/><path d="M11.1 96.3 l8.0 3.7" stroke="#fff" stroke-opacity="0.11" stroke-width="0.7"/><path d="M85.5 45.3 l8.3 -5.6" stroke="#fff" stroke-opacity="0.11" stroke-width="1.1"/><path d="M69.0 92.5 l5.7 0.8" stroke="#fff" stroke-opacity="0.13" stroke-width="1.2"/><path d="M64.0 128.5 l7.7 -4.1" stroke="#fff" stroke-opacity="0.09" stroke-width="0.8"/><path d="M39.3 89.0 l11.1 6.2" stroke="#fff" stroke-opacity="0.07" stroke-width="1.2"/><path d="M28.3 100.9 l10.7 6.1" stroke="#fff" stroke-opacity="0.11" stroke-width="0.6"/><path d="M48.2 97.6 l9.0 1.3" stroke="#fff" stroke-opacity="0.09" stroke-width="1.1"/><path d="M30.6 127.8 l7.0 5.5" stroke="#fff" stroke-opacity="0.14" stroke-width="0.5"/>
  <rect x=".5" y=".5" width="109" height="139" stroke="#fff" stroke-opacity=".12"/></svg>
